<svg width="171" height="216" viewBox="0 0 171 216" fill="none" xmlns="http://www.w3.org/2000/svg">
<path d="M106.16 61.17C97.7899 61.17 89.27 60.83 81.2999 58.61C73.4799 56.44 66.2999 52.23 59.8999 47.36C55.7099 44.19 51.8999 41.66 46.4599 42.04C41.138 42.328 36.0487 44.3153 31.9399 47.71C25.0199 53.77 26.0599 65 28.8299 72.86C32.9899 84.73 45.6499 93 56.4099 98.35C68.84 104.56 82.5 108.17 96.1899 110.24C108.19 112.07 123.61 113.39 134.01 105.56C143.56 98.35 146.18 81.91 143.84 70.81C143.272 67.5309 141.526 64.5721 138.93 62.49C132.22 57.58 122.21 60.86 114.67 61.02C111.87 61.08 109.02 61.15 106.16 61.17Z" fill="#F2F2F2"/>
<path d="M86.0801 129.7C106.354 129.7 122.79 128.675 122.79 127.41C122.79 126.145 106.354 125.12 86.0801 125.12C65.8057 125.12 49.3701 126.145 49.3701 127.41C49.3701 128.675 65.8057 129.7 86.0801 129.7Z" fill="#F2F2F2"/>
<path d="M34.28 39.12L47.28 38.02C48.9011 37.878 50.5218 38.2973 51.8707 39.2075C53.2196 40.1177 54.2149 41.4636 54.69 43.02L67.15 84.72L64.71 89.09C64.0833 90.216 63.7739 91.4909 63.8149 92.7789C63.8558 94.0669 64.2455 95.3196 64.9424 96.4035C65.6394 97.4874 66.6174 98.3619 67.7723 98.9336C68.9271 99.5053 70.2155 99.7529 71.5 99.65L121.4 95.41" stroke="#BABABA" stroke-linecap="round" stroke-linejoin="round"/>
<path d="M56.55 49.35L114.55 44.43C115.121 44.381 115.696 44.4613 116.233 44.665C116.769 44.8686 117.252 45.1903 117.647 45.6062C118.042 46.0221 118.338 46.5216 118.513 47.0675C118.688 47.6135 118.739 48.192 118.66 48.76L114.73 77.13C114.611 77.9812 114.209 78.7675 113.588 79.3624C112.968 79.9573 112.165 80.3263 111.31 80.41L67.1501 84.72L56.55 49.35Z" fill="white" stroke="#BABABA" stroke-linecap="round" stroke-linejoin="round"/>
<path d="M77.0501 109.21C79.6514 109.21 81.7601 107.101 81.7601 104.5C81.7601 101.899 79.6514 99.79 77.0501 99.79C74.4488 99.79 72.3401 101.899 72.3401 104.5C72.3401 107.101 74.4488 109.21 77.0501 109.21Z" fill="white" stroke="#BABABA" stroke-linecap="round" stroke-linejoin="round"/>
<path d="M109.85 106.43C112.451 106.43 114.56 104.321 114.56 101.72C114.56 99.1187 112.451 97.01 109.85 97.01C107.249 97.01 105.14 99.1187 105.14 101.72C105.14 104.321 107.249 106.43 109.85 106.43Z" fill="white" stroke="#BABABA" stroke-linecap="round" stroke-linejoin="round"/>
<path d="M44.5746 36.894L32.3186 37.9339C31.2565 38.0241 30.4686 38.9581 30.5587 40.0202C30.6488 41.0823 31.5829 41.8702 32.6449 41.7801L44.9009 40.7402C45.963 40.6501 46.7509 39.716 46.6608 38.6539C46.5707 37.5918 45.6366 36.8039 44.5746 36.894Z" fill="#D2D2D2"/>
<path d="M80.97 71.26C81.2091 69.4349 82.065 67.7465 83.3957 66.4747C84.7263 65.2029 86.4517 64.4242 88.2857 64.2678C90.1197 64.1113 91.9521 64.5866 93.4789 65.6146C95.0057 66.6427 96.1352 68.1618 96.68 69.92" stroke="#BABABA" stroke-linecap="round" stroke-linejoin="round"/>
<path d="M96.8099 60.47C97.4285 60.47 97.9299 59.9686 97.9299 59.35C97.9299 58.7315 97.4285 58.23 96.8099 58.23C96.1914 58.23 95.6899 58.7315 95.6899 59.35C95.6899 59.9686 96.1914 60.47 96.8099 60.47Z" fill="#BABABA"/>
<path d="M79.0599 61.97C79.6785 61.97 80.1799 61.4686 80.1799 60.85C80.1799 60.2315 79.6785 59.73 79.0599 59.73C78.4414 59.73 77.9399 60.2315 77.9399 60.85C77.9399 61.4686 78.4414 61.97 79.0599 61.97Z" fill="#BABABA"/>
<path d="M47.51 103.11V107.42" stroke="#BABABA" stroke-linecap="round" stroke-linejoin="round"/>
<path d="M45.3601 105.26H49.6601" stroke="#BABABA" stroke-linecap="round" stroke-linejoin="round"/>
<path d="M116.22 22.99V27.29" stroke="#BABABA" stroke-linecap="round" stroke-linejoin="round"/>
<path d="M114.07 25.14H118.37" stroke="#BABABA" stroke-linecap="round" stroke-linejoin="round"/>
<path d="M65.3101 35.84V40.14" stroke="#BABABA" stroke-linecap="round" stroke-linejoin="round"/>
<path d="M63.1499 37.99H67.4599" stroke="#BABABA" stroke-linecap="round" stroke-linejoin="round"/>
<path d="M126.95 51.65C127.513 51.65 127.97 51.1933 127.97 50.63C127.97 50.0667 127.513 49.61 126.95 49.61C126.387 49.61 125.93 50.0667 125.93 50.63C125.93 51.1933 126.387 51.65 126.95 51.65Z" fill="white" stroke="#BABABA" stroke-linecap="round" stroke-linejoin="round"/>
<path d="M88.8301 42.48C89.3713 42.48 89.8101 42.0412 89.8101 41.5C89.8101 40.9587 89.3713 40.52 88.8301 40.52C88.2889 40.52 87.8501 40.9587 87.8501 41.5C87.8501 42.0412 88.2889 42.48 88.8301 42.48Z" fill="#CFCFCF"/>
<path d="M95.4099 113.6C95.9512 113.6 96.3899 113.161 96.3899 112.62C96.3899 112.079 95.9512 111.64 95.4099 111.64C94.8687 111.64 94.4299 112.079 94.4299 112.62C94.4299 113.161 94.8687 113.6 95.4099 113.6Z" fill="#CFCFCF"/>
<path d="M36.77 156.295C36.8433 156.295 36.9083 156.323 36.965 156.38L37.495 156.955C37.2017 157.318 36.84 157.597 36.41 157.79C35.9833 157.983 35.47 158.08 34.87 158.08C34.3333 158.08 33.85 157.988 33.42 157.805C32.9933 157.622 32.6283 157.367 32.325 157.04C32.0217 156.713 31.7883 156.323 31.625 155.87C31.465 155.417 31.385 154.922 31.385 154.385C31.385 153.842 31.4717 153.345 31.645 152.895C31.8183 152.442 32.0617 152.052 32.375 151.725C32.6917 151.398 33.0683 151.145 33.505 150.965C33.9417 150.782 34.425 150.69 34.955 150.69C35.4817 150.69 35.9483 150.777 36.355 150.95C36.765 151.123 37.1133 151.35 37.4 151.63L36.95 152.255C36.9233 152.295 36.8883 152.33 36.845 152.36C36.805 152.39 36.7483 152.405 36.675 152.405C36.625 152.405 36.5733 152.392 36.52 152.365C36.4667 152.335 36.4083 152.3 36.345 152.26C36.2817 152.217 36.2083 152.17 36.125 152.12C36.0417 152.07 35.945 152.025 35.835 151.985C35.725 151.942 35.5967 151.907 35.45 151.88C35.3067 151.85 35.14 151.835 34.95 151.835C34.6267 151.835 34.33 151.893 34.06 152.01C33.7933 152.123 33.5633 152.29 33.37 152.51C33.1767 152.727 33.0267 152.993 32.92 153.31C32.8133 153.623 32.76 153.982 32.76 154.385C32.76 154.792 32.8167 155.153 32.93 155.47C33.0467 155.787 33.2033 156.053 33.4 156.27C33.5967 156.487 33.8283 156.653 34.095 156.77C34.3617 156.883 34.6483 156.94 34.955 156.94C35.1383 156.94 35.3033 156.93 35.45 156.91C35.6 156.89 35.7367 156.858 35.86 156.815C35.9867 156.772 36.105 156.717 36.215 156.65C36.3283 156.58 36.44 156.495 36.55 156.395C36.5833 156.365 36.6183 156.342 36.655 156.325C36.6917 156.305 36.73 156.295 36.77 156.295ZM41.4189 154.845C41.4189 154.685 41.3956 154.535 41.3489 154.395C41.3056 154.252 41.2389 154.127 41.1489 154.02C41.0589 153.913 40.9439 153.83 40.8039 153.77C40.6672 153.707 40.5072 153.675 40.3239 153.675C39.9672 153.675 39.6856 153.777 39.4789 153.98C39.2756 154.183 39.1456 154.472 39.0889 154.845H41.4189ZM39.0639 155.59C39.0839 155.853 39.1306 156.082 39.2039 156.275C39.2772 156.465 39.3739 156.623 39.4939 156.75C39.6139 156.873 39.7556 156.967 39.9189 157.03C40.0856 157.09 40.2689 157.12 40.4689 157.12C40.6689 157.12 40.8406 157.097 40.9839 157.05C41.1306 157.003 41.2572 156.952 41.3639 156.895C41.4739 156.838 41.5689 156.787 41.6489 156.74C41.7322 156.693 41.8122 156.67 41.8889 156.67C41.9922 156.67 42.0689 156.708 42.1189 156.785L42.4739 157.235C42.3372 157.395 42.1839 157.53 42.0139 157.64C41.8439 157.747 41.6656 157.833 41.4789 157.9C41.2956 157.963 41.1072 158.008 40.9139 158.035C40.7239 158.062 40.5389 158.075 40.3589 158.075C40.0022 158.075 39.6706 158.017 39.3639 157.9C39.0572 157.78 38.7906 157.605 38.5639 157.375C38.3372 157.142 38.1589 156.855 38.0289 156.515C37.8989 156.172 37.8339 155.775 37.8339 155.325C37.8339 154.975 37.8906 154.647 38.0039 154.34C38.1172 154.03 38.2789 153.762 38.4889 153.535C38.7022 153.305 38.9606 153.123 39.2639 152.99C39.5706 152.857 39.9156 152.79 40.2989 152.79C40.6222 152.79 40.9206 152.842 41.1939 152.945C41.4672 153.048 41.7022 153.2 41.8989 153.4C42.0956 153.597 42.2489 153.84 42.3589 154.13C42.4722 154.417 42.5289 154.745 42.5289 155.115C42.5289 155.302 42.5089 155.428 42.4689 155.495C42.4289 155.558 42.3522 155.59 42.2389 155.59H39.0639ZM44.6207 153.76C44.7807 153.453 44.9707 153.213 45.1907 153.04C45.4107 152.863 45.6707 152.775 45.9707 152.775C46.2074 152.775 46.3974 152.827 46.5407 152.93L46.4607 153.855C46.444 153.915 46.419 153.958 46.3857 153.985C46.3557 154.008 46.314 154.02 46.2607 154.02C46.2107 154.02 46.1357 154.012 46.0357 153.995C45.939 153.978 45.844 153.97 45.7507 153.97C45.614 153.97 45.4924 153.99 45.3857 154.03C45.279 154.07 45.1824 154.128 45.0957 154.205C45.0124 154.278 44.9374 154.368 44.8707 154.475C44.8074 154.582 44.7474 154.703 44.6907 154.84V158H43.4557V152.87H44.1807C44.3074 152.87 44.3957 152.893 44.4457 152.94C44.4957 152.983 44.529 153.063 44.5457 153.18L44.6207 153.76ZM49.3097 152.79C49.6897 152.79 50.0347 152.852 50.3447 152.975C50.658 153.098 50.9247 153.273 51.1447 153.5C51.368 153.727 51.5397 154.003 51.6597 154.33C51.7797 154.657 51.8397 155.022 51.8397 155.425C51.8397 155.832 51.7797 156.198 51.6597 156.525C51.5397 156.852 51.368 157.13 51.1447 157.36C50.9247 157.59 50.658 157.767 50.3447 157.89C50.0347 158.013 49.6897 158.075 49.3097 158.075C48.9264 158.075 48.578 158.013 48.2647 157.89C47.9514 157.767 47.683 157.59 47.4597 157.36C47.2397 157.13 47.068 156.852 46.9447 156.525C46.8247 156.198 46.7647 155.832 46.7647 155.425C46.7647 155.022 46.8247 154.657 46.9447 154.33C47.068 154.003 47.2397 153.727 47.4597 153.5C47.683 153.273 47.9514 153.098 48.2647 152.975C48.578 152.852 48.9264 152.79 49.3097 152.79ZM49.3097 157.125C49.7364 157.125 50.0514 156.982 50.2547 156.695C50.4614 156.408 50.5647 155.988 50.5647 155.435C50.5647 154.882 50.4614 154.46 50.2547 154.17C50.0514 153.88 49.7364 153.735 49.3097 153.735C48.8764 153.735 48.5547 153.882 48.3447 154.175C48.138 154.465 48.0347 154.885 48.0347 155.435C48.0347 155.985 48.138 156.405 48.3447 156.695C48.5547 156.982 48.8764 157.125 49.3097 157.125ZM52.7619 159.225C52.7019 159.175 52.6719 159.113 52.6719 159.04C52.6719 159.013 52.6802 158.983 52.6969 158.95C52.7169 158.917 52.7402 158.887 52.7669 158.86C52.8035 158.82 52.8485 158.77 52.9019 158.71C52.9552 158.653 53.0085 158.587 53.0619 158.51C53.1152 158.437 53.1635 158.355 53.2069 158.265C53.2535 158.178 53.2885 158.085 53.3119 157.985C53.2052 157.985 53.1085 157.967 53.0219 157.93C52.9352 157.89 52.8602 157.837 52.7969 157.77C52.7369 157.703 52.6885 157.625 52.6519 157.535C52.6185 157.445 52.6019 157.347 52.6019 157.24C52.6019 157.147 52.6185 157.06 52.6519 156.98C52.6885 156.897 52.7385 156.825 52.8019 156.765C52.8652 156.702 52.9419 156.653 53.0319 156.62C53.1219 156.583 53.2202 156.565 53.3269 156.565C53.4535 156.565 53.5635 156.588 53.6569 156.635C53.7535 156.678 53.8319 156.74 53.8919 156.82C53.9552 156.897 54.0019 156.987 54.0319 157.09C54.0652 157.19 54.0819 157.297 54.0819 157.41C54.0819 157.57 54.0569 157.738 54.0069 157.915C53.9602 158.092 53.8902 158.268 53.7969 158.445C53.7035 158.622 53.5869 158.793 53.4469 158.96C53.3102 159.127 53.1535 159.28 52.9769 159.42L52.7619 159.225ZM58.7123 153.5C58.8156 153.397 58.9239 153.302 59.0373 153.215C59.1539 153.125 59.2756 153.05 59.4023 152.99C59.5323 152.927 59.6706 152.878 59.8173 152.845C59.9639 152.808 60.1239 152.79 60.2973 152.79C60.5773 152.79 60.8256 152.838 61.0423 152.935C61.2589 153.028 61.4389 153.162 61.5823 153.335C61.7289 153.505 61.8389 153.71 61.9123 153.95C61.9889 154.187 62.0273 154.448 62.0273 154.735V158H60.7923V154.735C60.7923 154.422 60.7206 154.18 60.5773 154.01C60.4339 153.837 60.2156 153.75 59.9223 153.75C59.7089 153.75 59.5089 153.798 59.3223 153.895C59.1356 153.992 58.9589 154.123 58.7923 154.29V158H57.5573V152.87H58.3123C58.4723 152.87 58.5773 152.945 58.6273 153.095L58.7123 153.5ZM65.9118 155.81C65.5551 155.827 65.2551 155.858 65.0118 155.905C64.7685 155.948 64.5735 156.005 64.4268 156.075C64.2801 156.145 64.1751 156.227 64.1118 156.32C64.0485 156.413 64.0168 156.515 64.0168 156.625C64.0168 156.842 64.0801 156.997 64.2068 157.09C64.3368 157.183 64.5051 157.23 64.7118 157.23C64.9651 157.23 65.1835 157.185 65.3668 157.095C65.5535 157.002 65.7351 156.862 65.9118 156.675V155.81ZM63.0818 153.585C63.6718 153.045 64.3818 152.775 65.2118 152.775C65.5118 152.775 65.7801 152.825 66.0168 152.925C66.2535 153.022 66.4535 153.158 66.6168 153.335C66.7801 153.508 66.9035 153.717 66.9868 153.96C67.0735 154.203 67.1168 154.47 67.1168 154.76V158H66.5568C66.4401 158 66.3501 157.983 66.2868 157.95C66.2235 157.913 66.1735 157.842 66.1368 157.735L66.0268 157.365C65.8968 157.482 65.7701 157.585 65.6468 157.675C65.5235 157.762 65.3951 157.835 65.2618 157.895C65.1285 157.955 64.9851 158 64.8318 158.03C64.6818 158.063 64.5151 158.08 64.3318 158.08C64.1151 158.08 63.9151 158.052 63.7318 157.995C63.5485 157.935 63.3901 157.847 63.2568 157.73C63.1235 157.613 63.0201 157.468 62.9468 157.295C62.8735 157.122 62.8368 156.92 62.8368 156.69C62.8368 156.56 62.8585 156.432 62.9018 156.305C62.9451 156.175 63.0151 156.052 63.1118 155.935C63.2118 155.818 63.3401 155.708 63.4968 155.605C63.6535 155.502 63.8451 155.412 64.0718 155.335C64.3018 155.258 64.5685 155.197 64.8718 155.15C65.1751 155.1 65.5218 155.07 65.9118 155.06V154.76C65.9118 154.417 65.8385 154.163 65.6918 154C65.5451 153.833 65.3335 153.75 65.0568 153.75C64.8568 153.75 64.6901 153.773 64.5568 153.82C64.4268 153.867 64.3118 153.92 64.2118 153.98C64.1118 154.037 64.0201 154.088 63.9368 154.135C63.8568 154.182 63.7668 154.205 63.6668 154.205C63.5801 154.205 63.5068 154.183 63.4468 154.14C63.3868 154.093 63.3385 154.04 63.3018 153.98L63.0818 153.585ZM71.4999 154.18C71.3599 154.01 71.2066 153.89 71.0399 153.82C70.8766 153.75 70.6999 153.715 70.5099 153.715C70.3233 153.715 70.1549 153.75 70.0049 153.82C69.8549 153.89 69.7266 153.997 69.6199 154.14C69.5133 154.28 69.4316 154.46 69.3749 154.68C69.3183 154.897 69.2899 155.153 69.2899 155.45C69.2899 155.75 69.3133 156.005 69.3599 156.215C69.4099 156.422 69.4799 156.592 69.5699 156.725C69.6599 156.855 69.7699 156.95 69.8999 157.01C70.0299 157.067 70.1749 157.095 70.3349 157.095C70.5916 157.095 70.8099 157.042 70.9899 156.935C71.1699 156.828 71.3399 156.677 71.4999 156.48V154.18ZM72.7349 150.57V158H71.9799C71.8166 158 71.7133 157.925 71.6699 157.775L71.5649 157.28C71.3583 157.517 71.1199 157.708 70.8499 157.855C70.5833 158.002 70.2716 158.075 69.9149 158.075C69.6349 158.075 69.3783 158.017 69.1449 157.9C68.9116 157.783 68.7099 157.615 68.5399 157.395C68.3733 157.172 68.2433 156.897 68.1499 156.57C68.0599 156.243 68.0149 155.87 68.0149 155.45C68.0149 155.07 68.0666 154.717 68.1699 154.39C68.2733 154.063 68.4216 153.78 68.6149 153.54C68.8083 153.3 69.0399 153.113 69.3099 152.98C69.5799 152.843 69.8833 152.775 70.2199 152.775C70.5066 152.775 70.7516 152.82 70.9549 152.91C71.1583 153 71.3399 153.122 71.4999 153.275V150.57H72.7349ZM76.6638 155.81C76.3071 155.827 76.0071 155.858 75.7638 155.905C75.5204 155.948 75.3254 156.005 75.1788 156.075C75.0321 156.145 74.9271 156.227 74.8638 156.32C74.8004 156.413 74.7688 156.515 74.7688 156.625C74.7688 156.842 74.8321 156.997 74.9588 157.09C75.0888 157.183 75.2571 157.23 75.4638 157.23C75.7171 157.23 75.9354 157.185 76.1188 157.095C76.3054 157.002 76.4871 156.862 76.6638 156.675V155.81ZM73.8338 153.585C74.4238 153.045 75.1338 152.775 75.9638 152.775C76.2638 152.775 76.5321 152.825 76.7688 152.925C77.0054 153.022 77.2054 153.158 77.3688 153.335C77.5321 153.508 77.6554 153.717 77.7388 153.96C77.8254 154.203 77.8688 154.47 77.8688 154.76V158H77.3088C77.1921 158 77.1021 157.983 77.0388 157.95C76.9754 157.913 76.9254 157.842 76.8888 157.735L76.7788 157.365C76.6488 157.482 76.5221 157.585 76.3988 157.675C76.2754 157.762 76.1471 157.835 76.0138 157.895C75.8804 157.955 75.7371 158 75.5838 158.03C75.4338 158.063 75.2671 158.08 75.0838 158.08C74.8671 158.08 74.6671 158.052 74.4838 157.995C74.3004 157.935 74.1421 157.847 74.0088 157.73C73.8754 157.613 73.7721 157.468 73.6988 157.295C73.6254 157.122 73.5888 156.92 73.5888 156.69C73.5888 156.56 73.6104 156.432 73.6538 156.305C73.6971 156.175 73.7671 156.052 73.8638 155.935C73.9638 155.818 74.0921 155.708 74.2488 155.605C74.4054 155.502 74.5971 155.412 74.8238 155.335C75.0538 155.258 75.3204 155.197 75.6238 155.15C75.9271 155.1 76.2738 155.07 76.6638 155.06V154.76C76.6638 154.417 76.5904 154.163 76.4438 154C76.2971 153.833 76.0854 153.75 75.8088 153.75C75.6088 153.75 75.4421 153.773 75.3088 153.82C75.1788 153.867 75.0638 153.92 74.9638 153.98C74.8638 154.037 74.7721 154.088 74.6888 154.135C74.6088 154.182 74.5188 154.205 74.4188 154.205C74.3321 154.205 74.2588 154.183 74.1988 154.14C74.1388 154.093 74.0904 154.04 74.0538 153.98L73.8338 153.585ZM79.0119 159.225C78.9519 159.175 78.9219 159.113 78.9219 159.04C78.9219 159.013 78.9302 158.983 78.9469 158.95C78.9669 158.917 78.9902 158.887 79.0169 158.86C79.0535 158.82 79.0985 158.77 79.1519 158.71C79.2052 158.653 79.2585 158.587 79.3119 158.51C79.3652 158.437 79.4135 158.355 79.4569 158.265C79.5035 158.178 79.5385 158.085 79.5619 157.985C79.4552 157.985 79.3585 157.967 79.2719 157.93C79.1852 157.89 79.1102 157.837 79.0469 157.77C78.9869 157.703 78.9385 157.625 78.9019 157.535C78.8685 157.445 78.8519 157.347 78.8519 157.24C78.8519 157.147 78.8685 157.06 78.9019 156.98C78.9385 156.897 78.9885 156.825 79.0519 156.765C79.1152 156.702 79.1919 156.653 79.2819 156.62C79.3719 156.583 79.4702 156.565 79.5769 156.565C79.7035 156.565 79.8135 156.588 79.9069 156.635C80.0035 156.678 80.0819 156.74 80.1419 156.82C80.2052 156.897 80.2519 156.987 80.2819 157.09C80.3152 157.19 80.3319 157.297 80.3319 157.41C80.3319 157.57 80.3069 157.738 80.2569 157.915C80.2102 158.092 80.1402 158.268 80.0469 158.445C79.9535 158.622 79.8369 158.793 79.6969 158.96C79.5602 159.127 79.4035 159.28 79.2269 159.42L79.0119 159.225ZM83.9723 159.675V157.01C83.9723 156.707 83.9873 156.41 84.0173 156.12C84.0473 155.827 84.0873 155.517 84.1373 155.19H84.9723C85.0223 155.517 85.0606 155.827 85.0873 156.12C85.1173 156.41 85.1323 156.707 85.1323 157.01V159.675H83.9723ZM83.7823 153.54C83.7823 153.433 83.8006 153.335 83.8373 153.245C83.8773 153.152 83.9306 153.072 83.9973 153.005C84.0639 152.938 84.1439 152.887 84.2373 152.85C84.3306 152.81 84.4306 152.79 84.5373 152.79C84.6406 152.79 84.7389 152.81 84.8323 152.85C84.9256 152.887 85.0056 152.938 85.0723 153.005C85.1423 153.072 85.1973 153.152 85.2373 153.245C85.2773 153.335 85.2973 153.433 85.2973 153.54C85.2973 153.647 85.2773 153.747 85.2373 153.84C85.1973 153.93 85.1423 154.008 85.0723 154.075C85.0056 154.142 84.9256 154.195 84.8323 154.235C84.7389 154.275 84.6406 154.295 84.5373 154.295C84.4306 154.295 84.3306 154.275 84.2373 154.235C84.1439 154.195 84.0639 154.142 83.9973 154.075C83.9306 154.008 83.8773 153.93 83.8373 153.84C83.8006 153.747 83.7823 153.647 83.7823 153.54ZM87.6576 153.5C87.7609 153.397 87.8692 153.302 87.9826 153.215C88.0992 153.125 88.2209 153.05 88.3476 152.99C88.4776 152.927 88.6159 152.878 88.7626 152.845C88.9092 152.808 89.0692 152.79 89.2426 152.79C89.5226 152.79 89.7709 152.838 89.9876 152.935C90.2042 153.028 90.3842 153.162 90.5276 153.335C90.6742 153.505 90.7842 153.71 90.8576 153.95C90.9342 154.187 90.9726 154.448 90.9726 154.735V158H89.7376V154.735C89.7376 154.422 89.6659 154.18 89.5226 154.01C89.3792 153.837 89.1609 153.75 88.8676 153.75C88.6542 153.75 88.4542 153.798 88.2676 153.895C88.0809 153.992 87.9042 154.123 87.7376 154.29V158H86.5026V152.87H87.2576C87.4176 152.87 87.5226 152.945 87.5726 153.095L87.6576 153.5ZM93.4271 152.87V158H92.1871V152.87H93.4271ZM93.5971 151.375C93.5971 151.482 93.5754 151.582 93.5321 151.675C93.4888 151.768 93.4304 151.85 93.3571 151.92C93.2871 151.99 93.2038 152.047 93.1071 152.09C93.0104 152.13 92.9071 152.15 92.7971 152.15C92.6904 152.15 92.5888 152.13 92.4921 152.09C92.3988 152.047 92.3171 151.99 92.2471 151.92C92.1771 151.85 92.1204 151.768 92.0771 151.675C92.0371 151.582 92.0171 151.482 92.0171 151.375C92.0171 151.265 92.0371 151.162 92.0771 151.065C92.1204 150.968 92.1771 150.885 92.2471 150.815C92.3171 150.745 92.3988 150.69 92.4921 150.65C92.5888 150.607 92.6904 150.585 92.7971 150.585C92.9071 150.585 93.0104 150.607 93.1071 150.65C93.2038 150.69 93.2871 150.745 93.3571 150.815C93.4304 150.885 93.4888 150.968 93.5321 151.065C93.5754 151.162 93.5971 151.265 93.5971 151.375ZM101.538 152.87V158H100.783C100.619 158 100.516 157.925 100.473 157.775L100.388 157.365C100.178 157.578 99.9461 157.752 99.6928 157.885C99.4395 158.015 99.1411 158.08 98.7978 158.08C98.5178 158.08 98.2695 158.033 98.0528 157.94C97.8395 157.843 97.6595 157.708 97.5128 157.535C97.3661 157.362 97.2545 157.157 97.1778 156.92C97.1045 156.68 97.0678 156.417 97.0678 156.13V152.87H98.3028V156.13C98.3028 156.443 98.3745 156.687 98.5178 156.86C98.6645 157.03 98.8828 157.115 99.1728 157.115C99.3861 157.115 99.5861 157.068 99.7728 156.975C99.9595 156.878 100.136 156.747 100.303 156.58V152.87H101.538ZM103.917 153.5C104.021 153.397 104.129 153.302 104.242 153.215C104.359 153.125 104.481 153.05 104.607 152.99C104.737 152.927 104.876 152.878 105.022 152.845C105.169 152.808 105.329 152.79 105.502 152.79C105.782 152.79 106.031 152.838 106.247 152.935C106.464 153.028 106.644 153.162 106.787 153.335C106.934 153.505 107.044 153.71 107.117 153.95C107.194 154.187 107.232 154.448 107.232 154.735V158H105.997V154.735C105.997 154.422 105.926 154.18 105.782 154.01C105.639 153.837 105.421 153.75 105.127 153.75C104.914 153.75 104.714 153.798 104.527 153.895C104.341 153.992 104.164 154.123 103.997 154.29V158H102.762V152.87H103.517C103.677 152.87 103.782 152.945 103.832 153.095L103.917 153.5ZM111.117 155.81C110.76 155.827 110.46 155.858 110.217 155.905C109.974 155.948 109.779 156.005 109.632 156.075C109.485 156.145 109.38 156.227 109.317 156.32C109.254 156.413 109.222 156.515 109.222 156.625C109.222 156.842 109.285 156.997 109.412 157.09C109.542 157.183 109.71 157.23 109.917 157.23C110.17 157.23 110.389 157.185 110.572 157.095C110.759 157.002 110.94 156.862 111.117 156.675V155.81ZM108.287 153.585C108.877 153.045 109.587 152.775 110.417 152.775C110.717 152.775 110.985 152.825 111.222 152.925C111.459 153.022 111.659 153.158 111.822 153.335C111.985 153.508 112.109 153.717 112.192 153.96C112.279 154.203 112.322 154.47 112.322 154.76V158H111.762C111.645 158 111.555 157.983 111.492 157.95C111.429 157.913 111.379 157.842 111.342 157.735L111.232 157.365C111.102 157.482 110.975 157.585 110.852 157.675C110.729 157.762 110.6 157.835 110.467 157.895C110.334 157.955 110.19 158 110.037 158.03C109.887 158.063 109.72 158.08 109.537 158.08C109.32 158.08 109.12 158.052 108.937 157.995C108.754 157.935 108.595 157.847 108.462 157.73C108.329 157.613 108.225 157.468 108.152 157.295C108.079 157.122 108.042 156.92 108.042 156.69C108.042 156.56 108.064 156.432 108.107 156.305C108.15 156.175 108.22 156.052 108.317 155.935C108.417 155.818 108.545 155.708 108.702 155.605C108.859 155.502 109.05 155.412 109.277 155.335C109.507 155.258 109.774 155.197 110.077 155.15C110.38 155.1 110.727 155.07 111.117 155.06V154.76C111.117 154.417 111.044 154.163 110.897 154C110.75 153.833 110.539 153.75 110.262 153.75C110.062 153.75 109.895 153.773 109.762 153.82C109.632 153.867 109.517 153.92 109.417 153.98C109.317 154.037 109.225 154.088 109.142 154.135C109.062 154.182 108.972 154.205 108.872 154.205C108.785 154.205 108.712 154.183 108.652 154.14C108.592 154.093 108.544 154.04 108.507 153.98L108.287 153.585ZM119.592 153.955C119.555 154.002 119.518 154.038 119.482 154.065C119.448 154.092 119.398 154.105 119.332 154.105C119.268 154.105 119.207 154.087 119.147 154.05C119.087 154.01 119.015 153.967 118.932 153.92C118.848 153.87 118.748 153.827 118.632 153.79C118.518 153.75 118.377 153.73 118.207 153.73C117.99 153.73 117.8 153.77 117.637 153.85C117.473 153.927 117.337 154.038 117.227 154.185C117.12 154.332 117.04 154.51 116.987 154.72C116.933 154.927 116.907 155.162 116.907 155.425C116.907 155.698 116.935 155.942 116.992 156.155C117.052 156.368 117.137 156.548 117.247 156.695C117.357 156.838 117.49 156.948 117.647 157.025C117.803 157.098 117.98 157.135 118.177 157.135C118.373 157.135 118.532 157.112 118.652 157.065C118.775 157.015 118.878 156.962 118.962 156.905C119.045 156.845 119.117 156.792 119.177 156.745C119.24 156.695 119.31 156.67 119.387 156.67C119.487 156.67 119.562 156.708 119.612 156.785L119.967 157.235C119.83 157.395 119.682 157.53 119.522 157.64C119.362 157.747 119.195 157.833 119.022 157.9C118.852 157.963 118.675 158.008 118.492 158.035C118.312 158.062 118.132 158.075 117.952 158.075C117.635 158.075 117.337 158.017 117.057 157.9C116.777 157.78 116.532 157.607 116.322 157.38C116.112 157.153 115.945 156.877 115.822 156.55C115.702 156.22 115.642 155.845 115.642 155.425C115.642 155.048 115.695 154.7 115.802 154.38C115.912 154.057 116.072 153.778 116.282 153.545C116.492 153.308 116.752 153.123 117.062 152.99C117.372 152.857 117.728 152.79 118.132 152.79C118.515 152.79 118.85 152.852 119.137 152.975C119.427 153.098 119.687 153.275 119.917 153.505L119.592 153.955ZM122.923 152.79C123.303 152.79 123.648 152.852 123.958 152.975C124.271 153.098 124.538 153.273 124.758 153.5C124.981 153.727 125.153 154.003 125.273 154.33C125.393 154.657 125.453 155.022 125.453 155.425C125.453 155.832 125.393 156.198 125.273 156.525C125.153 156.852 124.981 157.13 124.758 157.36C124.538 157.59 124.271 157.767 123.958 157.89C123.648 158.013 123.303 158.075 122.923 158.075C122.54 158.075 122.191 158.013 121.878 157.89C121.565 157.767 121.296 157.59 121.073 157.36C120.853 157.13 120.681 156.852 120.558 156.525C120.438 156.198 120.378 155.832 120.378 155.425C120.378 155.022 120.438 154.657 120.558 154.33C120.681 154.003 120.853 153.727 121.073 153.5C121.296 153.273 121.565 153.098 121.878 152.975C122.191 152.852 122.54 152.79 122.923 152.79ZM122.923 157.125C123.35 157.125 123.665 156.982 123.868 156.695C124.075 156.408 124.178 155.988 124.178 155.435C124.178 154.882 124.075 154.46 123.868 154.17C123.665 153.88 123.35 153.735 122.923 153.735C122.49 153.735 122.168 153.882 121.958 154.175C121.751 154.465 121.648 154.885 121.648 155.435C121.648 155.985 121.751 156.405 121.958 156.695C122.168 156.982 122.49 157.125 122.923 157.125ZM129.525 153.87C129.492 153.923 129.457 153.962 129.42 153.985C129.383 154.005 129.337 154.015 129.28 154.015C129.22 154.015 129.155 153.998 129.085 153.965C129.018 153.932 128.94 153.895 128.85 153.855C128.76 153.812 128.657 153.773 128.54 153.74C128.427 153.707 128.292 153.69 128.135 153.69C127.892 153.69 127.7 153.742 127.56 153.845C127.423 153.948 127.355 154.083 127.355 154.25C127.355 154.36 127.39 154.453 127.46 154.53C127.533 154.603 127.628 154.668 127.745 154.725C127.865 154.782 128 154.833 128.15 154.88C128.3 154.923 128.452 154.972 128.605 155.025C128.762 155.078 128.915 155.14 129.065 155.21C129.215 155.277 129.348 155.363 129.465 155.47C129.585 155.573 129.68 155.698 129.75 155.845C129.823 155.992 129.86 156.168 129.86 156.375C129.86 156.622 129.815 156.85 129.725 157.06C129.638 157.267 129.508 157.447 129.335 157.6C129.162 157.75 128.947 157.868 128.69 157.955C128.437 158.038 128.143 158.08 127.81 158.08C127.633 158.08 127.46 158.063 127.29 158.03C127.123 158 126.962 157.957 126.805 157.9C126.652 157.843 126.508 157.777 126.375 157.7C126.245 157.623 126.13 157.54 126.03 157.45L126.315 156.98C126.352 156.923 126.395 156.88 126.445 156.85C126.495 156.82 126.558 156.805 126.635 156.805C126.712 156.805 126.783 156.827 126.85 156.87C126.92 156.913 127 156.96 127.09 157.01C127.18 157.06 127.285 157.107 127.405 157.15C127.528 157.193 127.683 157.215 127.87 157.215C128.017 157.215 128.142 157.198 128.245 157.165C128.352 157.128 128.438 157.082 128.505 157.025C128.575 156.968 128.625 156.903 128.655 156.83C128.688 156.753 128.705 156.675 128.705 156.595C128.705 156.475 128.668 156.377 128.595 156.3C128.525 156.223 128.43 156.157 128.31 156.1C128.193 156.043 128.058 155.993 127.905 155.95C127.755 155.903 127.6 155.853 127.44 155.8C127.283 155.747 127.128 155.685 126.975 155.615C126.825 155.542 126.69 155.45 126.57 155.34C126.453 155.23 126.358 155.095 126.285 154.935C126.215 154.775 126.18 154.582 126.18 154.355C126.18 154.145 126.222 153.945 126.305 153.755C126.388 153.565 126.51 153.4 126.67 153.26C126.833 153.117 127.035 153.003 127.275 152.92C127.518 152.833 127.798 152.79 128.115 152.79C128.468 152.79 128.79 152.848 129.08 152.965C129.37 153.082 129.612 153.235 129.805 153.425L129.525 153.87ZM132.07 152.87V158H130.83V152.87H132.07ZM132.24 151.375C132.24 151.482 132.218 151.582 132.175 151.675C132.131 151.768 132.073 151.85 132 151.92C131.93 151.99 131.846 152.047 131.75 152.09C131.653 152.13 131.55 152.15 131.44 152.15C131.333 152.15 131.231 152.13 131.135 152.09C131.041 152.047 130.96 151.99 130.89 151.92C130.82 151.85 130.763 151.768 130.72 151.675C130.68 151.582 130.66 151.482 130.66 151.375C130.66 151.265 130.68 151.162 130.72 151.065C130.763 150.968 130.82 150.885 130.89 150.815C130.96 150.745 131.041 150.69 131.135 150.65C131.231 150.607 131.333 150.585 131.44 150.585C131.55 150.585 131.653 150.607 131.75 150.65C131.846 150.69 131.93 150.745 132 150.815C132.073 150.885 132.131 150.968 132.175 151.065C132.218 151.162 132.24 151.265 132.24 151.375ZM135.039 158.08C134.592 158.08 134.249 157.955 134.009 157.705C133.772 157.452 133.654 157.103 133.654 156.66V153.795H133.129C133.062 153.795 133.005 153.773 132.959 153.73C132.912 153.687 132.889 153.622 132.889 153.535V153.045L133.714 152.91L133.974 151.51C133.99 151.443 134.022 151.392 134.069 151.355C134.115 151.318 134.175 151.3 134.249 151.3H134.889V152.915H136.259V153.795H134.889V156.575C134.889 156.735 134.927 156.86 135.004 156.95C135.084 157.04 135.192 157.085 135.329 157.085C135.405 157.085 135.469 157.077 135.519 157.06C135.572 157.04 135.617 157.02 135.654 157C135.694 156.98 135.729 156.962 135.759 156.945C135.789 156.925 135.819 156.915 135.849 156.915C135.885 156.915 135.915 156.925 135.939 156.945C135.962 156.962 135.987 156.988 136.014 157.025L136.384 157.625C136.204 157.775 135.997 157.888 135.764 157.965C135.53 158.042 135.289 158.08 135.039 158.08ZM139.759 155.81C139.403 155.827 139.103 155.858 138.859 155.905C138.616 155.948 138.421 156.005 138.274 156.075C138.128 156.145 138.023 156.227 137.959 156.32C137.896 156.413 137.864 156.515 137.864 156.625C137.864 156.842 137.928 156.997 138.054 157.09C138.184 157.183 138.353 157.23 138.559 157.23C138.813 157.23 139.031 157.185 139.214 157.095C139.401 157.002 139.583 156.862 139.759 156.675V155.81ZM136.929 153.585C137.519 153.045 138.229 152.775 139.059 152.775C139.359 152.775 139.628 152.825 139.864 152.925C140.101 153.022 140.301 153.158 140.464 153.335C140.628 153.508 140.751 153.717 140.834 153.96C140.921 154.203 140.964 154.47 140.964 154.76V158H140.404C140.288 158 140.198 157.983 140.134 157.95C140.071 157.913 140.021 157.842 139.984 157.735L139.874 157.365C139.744 157.482 139.618 157.585 139.494 157.675C139.371 157.762 139.243 157.835 139.109 157.895C138.976 157.955 138.833 158 138.679 158.03C138.529 158.063 138.363 158.08 138.179 158.08C137.963 158.08 137.763 158.052 137.579 157.995C137.396 157.935 137.238 157.847 137.104 157.73C136.971 157.613 136.868 157.468 136.794 157.295C136.721 157.122 136.684 156.92 136.684 156.69C136.684 156.56 136.706 156.432 136.749 156.305C136.793 156.175 136.863 156.052 136.959 155.935C137.059 155.818 137.188 155.708 137.344 155.605C137.501 155.502 137.693 155.412 137.919 155.335C138.149 155.258 138.416 155.197 138.719 155.15C139.023 155.1 139.369 155.07 139.759 155.06V154.76C139.759 154.417 139.686 154.163 139.539 154C139.393 153.833 139.181 153.75 138.904 153.75C138.704 153.75 138.538 153.773 138.404 153.82C138.274 153.867 138.159 153.92 138.059 153.98C137.959 154.037 137.868 154.088 137.784 154.135C137.704 154.182 137.614 154.205 137.514 154.205C137.428 154.205 137.354 154.183 137.294 154.14C137.234 154.093 137.186 154.04 137.149 153.98L136.929 153.585ZM143.508 150.77V153.63C143.508 153.933 143.493 154.232 143.463 154.525C143.433 154.815 143.394 155.123 143.348 155.45H142.508C142.461 155.123 142.423 154.815 142.393 154.525C142.363 154.232 142.348 153.933 142.348 153.63V150.77H143.508ZM142.153 157.32C142.153 157.217 142.171 157.118 142.208 157.025C142.248 156.932 142.301 156.852 142.368 156.785C142.438 156.718 142.519 156.665 142.613 156.625C142.706 156.585 142.806 156.565 142.913 156.565C143.016 156.565 143.114 156.585 143.208 156.625C143.301 156.665 143.381 156.718 143.448 156.785C143.518 156.852 143.573 156.932 143.613 157.025C143.653 157.118 143.673 157.217 143.673 157.32C143.673 157.427 143.653 157.527 143.613 157.62C143.573 157.71 143.518 157.788 143.448 157.855C143.381 157.922 143.301 157.973 143.208 158.01C143.114 158.05 143.016 158.07 142.913 158.07C142.806 158.07 142.706 158.05 142.613 158.01C142.519 157.973 142.438 157.922 142.368 157.855C142.301 157.788 142.248 157.71 142.208 157.62C142.171 157.527 142.153 157.427 142.153 157.32Z" fill="#939090"/>
<path d="M18.9372 173.429V174H16.0917V168.984H16.7672V173.429H18.9372ZM20.1844 168.844V174H19.5614V168.844H20.1844ZM23.5677 171.84C23.5677 171.696 23.5467 171.564 23.5047 171.445C23.465 171.324 23.4055 171.22 23.3262 171.133C23.2492 171.045 23.1547 170.977 23.0427 170.93C22.9307 170.881 22.8035 170.857 22.6612 170.857C22.3625 170.857 22.1257 170.944 21.9507 171.119C21.778 171.292 21.6707 171.532 21.6287 171.84H23.5677ZM24.0717 173.503C23.9947 173.596 23.9025 173.678 23.7952 173.748C23.6878 173.816 23.5723 173.872 23.4487 173.916C23.3273 173.96 23.2013 173.993 23.0707 174.014C22.94 174.037 22.8105 174.049 22.6822 174.049C22.4372 174.049 22.2108 174.008 22.0032 173.926C21.7978 173.842 21.6193 173.721 21.4677 173.562C21.3183 173.401 21.2017 173.203 21.1177 172.967C21.0337 172.732 20.9917 172.461 20.9917 172.155C20.9917 171.908 21.029 171.677 21.1037 171.462C21.1807 171.248 21.2903 171.062 21.4327 170.906C21.575 170.747 21.7488 170.624 21.9542 170.535C22.1595 170.444 22.3905 170.398 22.6472 170.398C22.8595 170.398 23.0555 170.435 23.2352 170.507C23.4172 170.577 23.5735 170.68 23.7042 170.815C23.8372 170.948 23.941 171.114 24.0157 171.312C24.0903 171.508 24.1277 171.732 24.1277 171.984C24.1277 172.082 24.1172 172.147 24.0962 172.18C24.0752 172.213 24.0355 172.229 23.9772 172.229H21.6077C21.6147 172.453 21.645 172.648 21.6987 172.813C21.7547 172.979 21.8317 173.118 21.9297 173.23C22.0277 173.34 22.1443 173.422 22.2797 173.478C22.415 173.532 22.5667 173.559 22.7347 173.559C22.891 173.559 23.0252 173.541 23.1372 173.506C23.2515 173.469 23.3495 173.429 23.4312 173.387C23.5128 173.345 23.5805 173.307 23.6342 173.272C23.6902 173.235 23.738 173.216 23.7777 173.216C23.829 173.216 23.8687 173.236 23.8967 173.275L24.0717 173.503ZM25.4809 170.969C25.5579 170.883 25.6396 170.804 25.7259 170.734C25.8122 170.664 25.9032 170.605 25.9989 170.556C26.0969 170.505 26.1996 170.466 26.3069 170.44C26.4166 170.412 26.5344 170.398 26.6604 170.398C26.8541 170.398 27.0244 170.431 27.1714 170.496C27.3207 170.559 27.4444 170.65 27.5424 170.769C27.6427 170.886 27.7186 171.027 27.7699 171.193C27.8212 171.359 27.8469 171.542 27.8469 171.742V174H27.2204V171.742C27.2204 171.474 27.1586 171.266 27.0349 171.119C26.9136 170.97 26.7281 170.895 26.4784 170.895C26.2941 170.895 26.1214 170.94 25.9604 171.028C25.8017 171.117 25.6547 171.237 25.5194 171.389V174H24.8929V170.454H25.2674C25.3561 170.454 25.4109 170.498 25.4319 170.584L25.4809 170.969ZM30.7177 172.404C30.4307 172.413 30.1857 172.437 29.9827 172.474C29.7821 172.509 29.6176 172.556 29.4892 172.614C29.3632 172.672 29.2711 172.741 29.2127 172.82C29.1567 172.9 29.1287 172.988 29.1287 173.086C29.1287 173.18 29.1439 173.26 29.1742 173.328C29.2046 173.396 29.2454 173.452 29.2967 173.496C29.3504 173.538 29.4122 173.569 29.4822 173.59C29.5546 173.609 29.6316 173.618 29.7132 173.618C29.8229 173.618 29.9232 173.608 30.0142 173.587C30.1052 173.564 30.1904 173.531 30.2697 173.489C30.3514 173.447 30.4284 173.397 30.5007 173.338C30.5754 173.28 30.6477 173.214 30.7177 173.139V172.404ZM28.7052 170.955C28.9012 170.766 29.1124 170.625 29.3387 170.531C29.5651 170.438 29.8159 170.391 30.0912 170.391C30.2896 170.391 30.4657 170.424 30.6197 170.489C30.7737 170.555 30.9032 170.646 31.0082 170.762C31.1132 170.879 31.1926 171.02 31.2462 171.186C31.2999 171.352 31.3267 171.534 31.3267 171.732V174H31.0502C30.9896 174 30.9429 173.991 30.9102 173.972C30.8776 173.951 30.8519 173.911 30.8332 173.853L30.7632 173.517C30.6699 173.603 30.5789 173.68 30.4902 173.748C30.4016 173.813 30.3082 173.869 30.2102 173.916C30.1122 173.96 30.0072 173.994 29.8952 174.018C29.7856 174.043 29.6631 174.056 29.5277 174.056C29.3901 174.056 29.2606 174.037 29.1392 174C29.0179 173.96 28.9117 173.902 28.8207 173.825C28.7321 173.748 28.6609 173.651 28.6072 173.534C28.5559 173.415 28.5302 173.275 28.5302 173.114C28.5302 172.974 28.5687 172.84 28.6457 172.712C28.7227 172.581 28.8476 172.466 29.0202 172.365C29.1929 172.265 29.4181 172.183 29.6957 172.12C29.9734 172.055 30.3141 172.018 30.7177 172.008V171.732C30.7177 171.457 30.6582 171.249 30.5392 171.109C30.4202 170.967 30.2464 170.895 30.0177 170.895C29.8637 170.895 29.7342 170.915 29.6292 170.955C29.5266 170.992 29.4367 171.035 29.3597 171.084C29.2851 171.131 29.2197 171.174 29.1637 171.214C29.1101 171.251 29.0564 171.27 29.0027 171.27C28.9607 171.27 28.9246 171.259 28.8942 171.238C28.8639 171.215 28.8382 171.187 28.8172 171.154L28.7052 170.955ZM35.1552 174.056C34.8752 174.056 34.6594 173.978 34.5077 173.821C34.3584 173.665 34.2837 173.44 34.2837 173.146V170.976H33.8567C33.8194 170.976 33.7879 170.965 33.7622 170.944C33.7366 170.921 33.7237 170.886 33.7237 170.839V170.591L34.3047 170.517L34.4482 169.422C34.4552 169.387 34.4704 169.359 34.4937 169.338C34.5194 169.315 34.5521 169.303 34.5917 169.303H34.9067V170.524H35.9322V170.976H34.9067V173.104C34.9067 173.253 34.9429 173.364 35.0152 173.436C35.0876 173.509 35.1809 173.545 35.2952 173.545C35.3606 173.545 35.4166 173.537 35.4632 173.52C35.5122 173.502 35.5542 173.482 35.5892 173.461C35.6242 173.44 35.6534 173.421 35.6767 173.405C35.7024 173.386 35.7246 173.377 35.7432 173.377C35.7759 173.377 35.8051 173.397 35.8307 173.436L36.0127 173.734C35.9054 173.834 35.7759 173.914 35.6242 173.972C35.4726 174.028 35.3162 174.056 35.1552 174.056ZM39.491 170.454V174H39.12C39.0314 174 38.9754 173.957 38.952 173.87L38.903 173.489C38.749 173.659 38.5764 173.797 38.385 173.902C38.1937 174.005 37.9744 174.056 37.727 174.056C37.5334 174.056 37.3619 174.025 37.2125 173.961C37.0655 173.896 36.9419 173.805 36.8415 173.688C36.7412 173.572 36.6654 173.431 36.614 173.265C36.565 173.099 36.5405 172.916 36.5405 172.715V170.454H37.1635V172.715C37.1635 172.984 37.2242 173.191 37.3455 173.338C37.4692 173.485 37.657 173.559 37.909 173.559C38.0934 173.559 38.2649 173.516 38.4235 173.429C38.5845 173.341 38.7327 173.219 38.868 173.065V170.454H39.491ZM44.7374 171.084C44.7187 171.11 44.7 171.13 44.6814 171.144C44.6627 171.158 44.637 171.165 44.6044 171.165C44.5694 171.165 44.5309 171.151 44.4889 171.123C44.4469 171.093 44.3944 171.06 44.3314 171.025C44.2707 170.99 44.1949 170.958 44.1039 170.93C44.0152 170.9 43.9055 170.885 43.7749 170.885C43.5999 170.885 43.4459 170.916 43.3129 170.979C43.1799 171.04 43.0679 171.129 42.9769 171.245C42.8882 171.362 42.8205 171.503 42.7739 171.669C42.7295 171.835 42.7074 172.02 42.7074 172.225C42.7074 172.44 42.7319 172.631 42.7809 172.799C42.8299 172.965 42.8987 173.105 42.9874 173.219C43.0784 173.331 43.1869 173.418 43.3129 173.478C43.4412 173.537 43.5847 173.566 43.7434 173.566C43.895 173.566 44.0199 173.548 44.1179 173.513C44.2159 173.476 44.2964 173.435 44.3594 173.391C44.4247 173.347 44.4784 173.307 44.5204 173.272C44.5647 173.235 44.6079 173.216 44.6499 173.216C44.7012 173.216 44.7409 173.236 44.7689 173.275L44.9439 173.503C44.8669 173.599 44.7794 173.68 44.6814 173.748C44.5834 173.816 44.4772 173.873 44.3629 173.919C44.2509 173.964 44.133 173.996 44.0094 174.018C43.8857 174.039 43.7597 174.049 43.6314 174.049C43.4097 174.049 43.2032 174.008 43.0119 173.926C42.8229 173.845 42.6584 173.727 42.5184 173.573C42.3784 173.417 42.2687 173.225 42.1894 172.999C42.11 172.773 42.0704 172.515 42.0704 172.225C42.0704 171.962 42.1065 171.718 42.1789 171.494C42.2535 171.27 42.3609 171.077 42.5009 170.916C42.6432 170.753 42.817 170.626 43.0224 170.535C43.23 170.444 43.468 170.398 43.7364 170.398C43.986 170.398 44.2054 170.439 44.3944 170.521C44.5857 170.6 44.7549 170.713 44.9019 170.86L44.7374 171.084ZM47.5341 172.404C47.2471 172.413 47.0021 172.437 46.7991 172.474C46.5985 172.509 46.434 172.556 46.3056 172.614C46.1796 172.672 46.0875 172.741 46.0291 172.82C45.9731 172.9 45.9451 172.988 45.9451 173.086C45.9451 173.18 45.9603 173.26 45.9906 173.328C46.021 173.396 46.0618 173.452 46.1131 173.496C46.1668 173.538 46.2286 173.569 46.2986 173.59C46.371 173.609 46.448 173.618 46.5296 173.618C46.6393 173.618 46.7396 173.608 46.8306 173.587C46.9216 173.564 47.0068 173.531 47.0861 173.489C47.1678 173.447 47.2448 173.397 47.3171 173.338C47.3918 173.28 47.4641 173.214 47.5341 173.139V172.404ZM45.5216 170.955C45.7176 170.766 45.9288 170.625 46.1551 170.531C46.3815 170.438 46.6323 170.391 46.9076 170.391C47.106 170.391 47.2821 170.424 47.4361 170.489C47.5901 170.555 47.7196 170.646 47.8246 170.762C47.9296 170.879 48.009 171.02 48.0626 171.186C48.1163 171.352 48.1431 171.534 48.1431 171.732V174H47.8666C47.806 174 47.7593 173.991 47.7266 173.972C47.694 173.951 47.6683 173.911 47.6496 173.853L47.5796 173.517C47.4863 173.603 47.3953 173.68 47.3066 173.748C47.218 173.813 47.1246 173.869 47.0266 173.916C46.9286 173.96 46.8236 173.994 46.7116 174.018C46.602 174.043 46.4795 174.056 46.3441 174.056C46.2065 174.056 46.077 174.037 45.9556 174C45.8343 173.96 45.7281 173.902 45.6371 173.825C45.5485 173.748 45.4773 173.651 45.4236 173.534C45.3723 173.415 45.3466 173.275 45.3466 173.114C45.3466 172.974 45.3851 172.84 45.4621 172.712C45.5391 172.581 45.664 172.466 45.8366 172.365C46.0093 172.265 46.2345 172.183 46.5121 172.12C46.7898 172.055 47.1305 172.018 47.5341 172.008V171.732C47.5341 171.457 47.4746 171.249 47.3556 171.109C47.2366 170.967 47.0628 170.895 46.8341 170.895C46.6801 170.895 46.5506 170.915 46.4456 170.955C46.343 170.992 46.2531 171.035 46.1761 171.084C46.1015 171.131 46.0361 171.174 45.9801 171.214C45.9265 171.251 45.8728 171.27 45.8191 171.27C45.7771 171.27 45.741 171.259 45.7106 171.238C45.6803 171.215 45.6546 171.187 45.6336 171.154L45.5216 170.955ZM49.6836 171.165C49.7956 170.922 49.9333 170.733 50.0966 170.598C50.26 170.46 50.4595 170.391 50.6951 170.391C50.7698 170.391 50.841 170.4 50.9086 170.416C50.9786 170.432 51.0405 170.458 51.0941 170.493L51.0486 170.958C51.0346 171.017 50.9996 171.046 50.9436 171.046C50.911 171.046 50.8631 171.039 50.8001 171.025C50.7371 171.011 50.666 171.004 50.5866 171.004C50.4746 171.004 50.3743 171.02 50.2856 171.053C50.1993 171.086 50.1211 171.135 50.0511 171.2C49.9835 171.263 49.9216 171.342 49.8656 171.438C49.812 171.531 49.763 171.639 49.7186 171.76V174H49.0921V170.454H49.4491C49.5168 170.454 49.5635 170.467 49.5891 170.493C49.6148 170.519 49.6323 170.563 49.6416 170.626L49.6836 171.165ZM52.2334 171.165C52.3454 170.922 52.4831 170.733 52.6464 170.598C52.8098 170.46 53.0093 170.391 53.2449 170.391C53.3196 170.391 53.3908 170.4 53.4584 170.416C53.5284 170.432 53.5903 170.458 53.6439 170.493L53.5984 170.958C53.5844 171.017 53.5494 171.046 53.4934 171.046C53.4608 171.046 53.4129 171.039 53.3499 171.025C53.2869 171.011 53.2158 171.004 53.1364 171.004C53.0244 171.004 52.9241 171.02 52.8354 171.053C52.7491 171.086 52.6709 171.135 52.6009 171.2C52.5333 171.263 52.4714 171.342 52.4154 171.438C52.3618 171.531 52.3128 171.639 52.2684 171.76V174H51.6419V170.454H51.9989C52.0666 170.454 52.1133 170.467 52.1389 170.493C52.1646 170.519 52.1821 170.563 52.1914 170.626L52.2334 171.165ZM54.8497 170.454V174H54.2267V170.454H54.8497ZM54.9827 169.341C54.9827 169.402 54.9699 169.459 54.9442 169.513C54.9209 169.564 54.8882 169.611 54.8462 169.653C54.8066 169.693 54.7587 169.724 54.7027 169.747C54.6491 169.771 54.5919 169.782 54.5312 169.782C54.4706 169.782 54.4134 169.771 54.3597 169.747C54.3084 169.724 54.2629 169.693 54.2232 169.653C54.1836 169.611 54.1521 169.564 54.1287 169.513C54.1054 169.459 54.0937 169.402 54.0937 169.341C54.0937 169.281 54.1054 169.224 54.1287 169.17C54.1521 169.114 54.1836 169.066 54.2232 169.026C54.2629 168.984 54.3084 168.952 54.3597 168.928C54.4134 168.905 54.4706 168.893 54.5312 168.893C54.5919 168.893 54.6491 168.905 54.7027 168.928C54.7587 168.952 54.8066 168.984 54.8462 169.026C54.8882 169.066 54.9209 169.114 54.9442 169.17C54.9699 169.224 54.9827 169.281 54.9827 169.341ZM56.9619 174.056C56.6819 174.056 56.466 173.978 56.3144 173.821C56.165 173.665 56.0904 173.44 56.0904 173.146V170.976H55.6634C55.626 170.976 55.5945 170.965 55.5689 170.944C55.5432 170.921 55.5304 170.886 55.5304 170.839V170.591L56.1114 170.517L56.2549 169.422C56.2619 169.387 56.277 169.359 56.3004 169.338C56.326 169.315 56.3587 169.303 56.3984 169.303H56.7134V170.524H57.7389V170.976H56.7134V173.104C56.7134 173.253 56.7495 173.364 56.8219 173.436C56.8942 173.509 56.9875 173.545 57.1019 173.545C57.1672 173.545 57.2232 173.537 57.2699 173.52C57.3189 173.502 57.3609 173.482 57.3959 173.461C57.4309 173.44 57.46 173.421 57.4834 173.405C57.509 173.386 57.5312 173.377 57.5499 173.377C57.5825 173.377 57.6117 173.397 57.6374 173.436L57.8194 173.734C57.712 173.834 57.5825 173.914 57.4309 173.972C57.2792 174.028 57.1229 174.056 56.9619 174.056ZM59.8562 170.398C60.1152 170.398 60.3485 170.442 60.5562 170.528C60.7638 170.614 60.9412 170.737 61.0882 170.895C61.2352 171.054 61.3472 171.247 61.4242 171.473C61.5035 171.697 61.5432 171.948 61.5432 172.225C61.5432 172.505 61.5035 172.757 61.4242 172.981C61.3472 173.205 61.2352 173.397 61.0882 173.555C60.9412 173.714 60.7638 173.837 60.5562 173.923C60.3485 174.007 60.1152 174.049 59.8562 174.049C59.5948 174.049 59.3592 174.007 59.1492 173.923C58.9415 173.837 58.7642 173.714 58.6172 173.555C58.4702 173.397 58.357 173.205 58.2777 172.981C58.2007 172.757 58.1622 172.505 58.1622 172.225C58.1622 171.948 58.2007 171.697 58.2777 171.473C58.357 171.247 58.4702 171.054 58.6172 170.895C58.7642 170.737 58.9415 170.614 59.1492 170.528C59.3592 170.442 59.5948 170.398 59.8562 170.398ZM59.8562 173.562C60.2062 173.562 60.4675 173.446 60.6402 173.212C60.8128 172.977 60.8992 172.649 60.8992 172.229C60.8992 171.807 60.8128 171.478 60.6402 171.242C60.4675 171.006 60.2062 170.888 59.8562 170.888C59.6788 170.888 59.5237 170.919 59.3907 170.979C59.26 171.04 59.1503 171.128 59.0617 171.242C58.9753 171.356 58.91 171.497 58.8657 171.665C58.8237 171.831 58.8027 172.019 58.8027 172.229C58.8027 172.649 58.889 172.977 59.0617 173.212C59.2367 173.446 59.5015 173.562 59.8562 173.562ZM66.5919 171.084C66.5732 171.11 66.5545 171.13 66.5359 171.144C66.5172 171.158 66.4915 171.165 66.4589 171.165C66.4239 171.165 66.3854 171.151 66.3434 171.123C66.3014 171.093 66.2489 171.06 66.1859 171.025C66.1252 170.99 66.0494 170.958 65.9584 170.93C65.8697 170.9 65.76 170.885 65.6294 170.885C65.4544 170.885 65.3004 170.916 65.1674 170.979C65.0344 171.04 64.9224 171.129 64.8314 171.245C64.7427 171.362 64.675 171.503 64.6284 171.669C64.584 171.835 64.5619 172.02 64.5619 172.225C64.5619 172.44 64.5864 172.631 64.6354 172.799C64.6844 172.965 64.7532 173.105 64.8419 173.219C64.9329 173.331 65.0414 173.418 65.1674 173.478C65.2957 173.537 65.4392 173.566 65.5979 173.566C65.7495 173.566 65.8744 173.548 65.9724 173.513C66.0704 173.476 66.1509 173.435 66.2139 173.391C66.2792 173.347 66.3329 173.307 66.3749 173.272C66.4192 173.235 66.4624 173.216 66.5044 173.216C66.5557 173.216 66.5954 173.236 66.6234 173.275L66.7984 173.503C66.7214 173.599 66.6339 173.68 66.5359 173.748C66.4379 173.816 66.3317 173.873 66.2174 173.919C66.1054 173.964 65.9875 173.996 65.8639 174.018C65.7402 174.039 65.6142 174.049 65.4859 174.049C65.2642 174.049 65.0577 174.008 64.8664 173.926C64.6774 173.845 64.5129 173.727 64.3729 173.573C64.2329 173.417 64.1232 173.225 64.0439 172.999C63.9645 172.773 63.9249 172.515 63.9249 172.225C63.9249 171.962 63.961 171.718 64.0334 171.494C64.108 171.27 64.2154 171.077 64.3554 170.916C64.4977 170.753 64.6715 170.626 64.8769 170.535C65.0845 170.444 65.3225 170.398 65.5909 170.398C65.8405 170.398 66.0599 170.439 66.2489 170.521C66.4402 170.6 66.6094 170.713 66.7564 170.86L66.5919 171.084ZM68.9001 170.398C69.1591 170.398 69.3924 170.442 69.6001 170.528C69.8078 170.614 69.9851 170.737 70.1321 170.895C70.2791 171.054 70.3911 171.247 70.4681 171.473C70.5474 171.697 70.5871 171.948 70.5871 172.225C70.5871 172.505 70.5474 172.757 70.4681 172.981C70.3911 173.205 70.2791 173.397 70.1321 173.555C69.9851 173.714 69.8078 173.837 69.6001 173.923C69.3924 174.007 69.1591 174.049 68.9001 174.049C68.6388 174.049 68.4031 174.007 68.1931 173.923C67.9854 173.837 67.8081 173.714 67.6611 173.555C67.5141 173.397 67.4009 173.205 67.3216 172.981C67.2446 172.757 67.2061 172.505 67.2061 172.225C67.2061 171.948 67.2446 171.697 67.3216 171.473C67.4009 171.247 67.5141 171.054 67.6611 170.895C67.8081 170.737 67.9854 170.614 68.1931 170.528C68.4031 170.442 68.6388 170.398 68.9001 170.398ZM68.9001 173.562C69.2501 173.562 69.5114 173.446 69.6841 173.212C69.8568 172.977 69.9431 172.649 69.9431 172.229C69.9431 171.807 69.8568 171.478 69.6841 171.242C69.5114 171.006 69.2501 170.888 68.9001 170.888C68.7228 170.888 68.5676 170.919 68.4346 170.979C68.3039 171.04 68.1943 171.128 68.1056 171.242C68.0193 171.356 67.9539 171.497 67.9096 171.665C67.8676 171.831 67.8466 172.019 67.8466 172.229C67.8466 172.649 67.9329 172.977 68.1056 173.212C68.2806 173.446 68.5454 173.562 68.9001 173.562ZM71.9653 170.969C72.0423 170.883 72.124 170.804 72.2103 170.734C72.2966 170.664 72.3876 170.605 72.4833 170.556C72.5813 170.505 72.684 170.466 72.7913 170.44C72.901 170.412 73.0188 170.398 73.1448 170.398C73.3385 170.398 73.5088 170.431 73.6558 170.496C73.8051 170.559 73.9288 170.65 74.0268 170.769C74.1271 170.886 74.203 171.027 74.2543 171.193C74.3056 171.359 74.3313 171.542 74.3313 171.742V174H73.7048V171.742C73.7048 171.474 73.643 171.266 73.5193 171.119C73.398 170.97 73.2125 170.895 72.9628 170.895C72.7785 170.895 72.6058 170.94 72.4448 171.028C72.2861 171.117 72.1391 171.237 72.0038 171.389V174H71.3773V170.454H71.7518C71.8405 170.454 71.8953 170.498 71.9163 170.584L71.9653 170.969ZM77.7156 168.844V174H77.0926V168.844H77.7156ZM80.2204 170.398C80.4794 170.398 80.7128 170.442 80.9204 170.528C81.1281 170.614 81.3054 170.737 81.4524 170.895C81.5994 171.054 81.7114 171.247 81.7884 171.473C81.8678 171.697 81.9074 171.948 81.9074 172.225C81.9074 172.505 81.8678 172.757 81.7884 172.981C81.7114 173.205 81.5994 173.397 81.4524 173.555C81.3054 173.714 81.1281 173.837 80.9204 173.923C80.7128 174.007 80.4794 174.049 80.2204 174.049C79.9591 174.049 79.7234 174.007 79.5134 173.923C79.3058 173.837 79.1284 173.714 78.9814 173.555C78.8344 173.397 78.7213 173.205 78.6419 172.981C78.5649 172.757 78.5264 172.505 78.5264 172.225C78.5264 171.948 78.5649 171.697 78.6419 171.473C78.7213 171.247 78.8344 171.054 78.9814 170.895C79.1284 170.737 79.3058 170.614 79.5134 170.528C79.7234 170.442 79.9591 170.398 80.2204 170.398ZM80.2204 173.562C80.5704 173.562 80.8318 173.446 81.0044 173.212C81.1771 172.977 81.2634 172.649 81.2634 172.229C81.2634 171.807 81.1771 171.478 81.0044 171.242C80.8318 171.006 80.5704 170.888 80.2204 170.888C80.0431 170.888 79.8879 170.919 79.7549 170.979C79.6243 171.04 79.5146 171.128 79.4259 171.242C79.3396 171.356 79.2743 171.497 79.2299 171.665C79.1879 171.831 79.1669 172.019 79.1669 172.229C79.1669 172.649 79.2533 172.977 79.4259 173.212C79.6009 173.446 79.8658 173.562 80.2204 173.562ZM86.7986 171.294C86.6866 171.145 86.5618 171.039 86.4241 170.976C86.2865 170.911 86.1336 170.878 85.9656 170.878C85.6366 170.878 85.3835 170.996 85.2061 171.231C85.0288 171.467 84.9401 171.803 84.9401 172.239C84.9401 172.47 84.96 172.669 84.9996 172.834C85.0393 172.998 85.0976 173.133 85.1746 173.24C85.2516 173.345 85.3461 173.422 85.4581 173.471C85.5701 173.52 85.6973 173.545 85.8396 173.545C86.045 173.545 86.2235 173.498 86.3751 173.405C86.5291 173.312 86.6703 173.18 86.7986 173.009V171.294ZM87.4216 170.454V175.201H86.7986V173.471C86.6516 173.644 86.4825 173.784 86.2911 173.891C86.0998 173.996 85.8816 174.049 85.6366 174.049C85.4336 174.049 85.2493 174.01 85.0836 173.933C84.918 173.854 84.7768 173.739 84.6601 173.587C84.5435 173.435 84.4536 173.246 84.3906 173.02C84.3276 172.794 84.2961 172.533 84.2961 172.239C84.2961 171.978 84.3311 171.735 84.4011 171.511C84.4711 171.285 84.5715 171.089 84.7021 170.923C84.8328 170.758 84.9926 170.628 85.1816 170.535C85.373 170.439 85.5876 170.391 85.8256 170.391C86.0566 170.391 86.2526 170.432 86.4136 170.514C86.5746 170.596 86.717 170.71 86.8406 170.857L86.8826 170.584C86.906 170.498 86.962 170.454 87.0506 170.454H87.4216ZM91.3211 170.454V174H90.9501C90.8614 174 90.8054 173.957 90.7821 173.87L90.7331 173.489C90.5791 173.659 90.4064 173.797 90.2151 173.902C90.0238 174.005 89.8044 174.056 89.5571 174.056C89.3634 174.056 89.1919 174.025 89.0426 173.961C88.8956 173.896 88.7719 173.805 88.6716 173.688C88.5713 173.572 88.4954 173.431 88.4441 173.265C88.3951 173.099 88.3706 172.916 88.3706 172.715V170.454H88.9936V172.715C88.9936 172.984 89.0543 173.191 89.1756 173.338C89.2993 173.485 89.4871 173.559 89.7391 173.559C89.9234 173.559 90.0949 173.516 90.2536 173.429C90.4146 173.341 90.5628 173.219 90.6981 173.065V170.454H91.3211ZM94.6819 171.84C94.6819 171.696 94.6609 171.564 94.6189 171.445C94.5793 171.324 94.5198 171.22 94.4404 171.133C94.3634 171.045 94.2689 170.977 94.1569 170.93C94.0449 170.881 93.9178 170.857 93.7754 170.857C93.4768 170.857 93.2399 170.944 93.0649 171.119C92.8923 171.292 92.7849 171.532 92.7429 171.84H94.6819ZM95.1859 173.503C95.1089 173.596 95.0168 173.678 94.9094 173.748C94.8021 173.816 94.6866 173.872 94.5629 173.916C94.4416 173.96 94.3156 173.993 94.1849 174.014C94.0543 174.037 93.9248 174.049 93.7964 174.049C93.5514 174.049 93.3251 174.008 93.1174 173.926C92.9121 173.842 92.7336 173.721 92.5819 173.562C92.4326 173.401 92.3159 173.203 92.2319 172.967C92.1479 172.732 92.1059 172.461 92.1059 172.155C92.1059 171.908 92.1433 171.677 92.2179 171.462C92.2949 171.248 92.4046 171.062 92.5469 170.906C92.6893 170.747 92.8631 170.624 93.0684 170.535C93.2738 170.444 93.5048 170.398 93.7614 170.398C93.9738 170.398 94.1698 170.435 94.3494 170.507C94.5314 170.577 94.6878 170.68 94.8184 170.815C94.9514 170.948 95.0553 171.114 95.1299 171.312C95.2046 171.508 95.2419 171.732 95.2419 171.984C95.2419 172.082 95.2314 172.147 95.2104 172.18C95.1894 172.213 95.1498 172.229 95.0914 172.229H92.7219C92.7289 172.453 92.7593 172.648 92.8129 172.813C92.8689 172.979 92.9459 173.118 93.0439 173.23C93.1419 173.34 93.2586 173.422 93.3939 173.478C93.5293 173.532 93.6809 173.559 93.8489 173.559C94.0053 173.559 94.1394 173.541 94.2514 173.506C94.3658 173.469 94.4638 173.429 94.5454 173.387C94.6271 173.345 94.6948 173.307 94.7484 173.272C94.8044 173.235 94.8523 173.216 94.8919 173.216C94.9433 173.216 94.9829 173.236 95.0109 173.275L95.1859 173.503ZM98.8867 174.056C98.6067 174.056 98.3909 173.978 98.2392 173.821C98.0899 173.665 98.0152 173.44 98.0152 173.146V170.976H97.5882C97.5509 170.976 97.5194 170.965 97.4937 170.944C97.468 170.921 97.4552 170.886 97.4552 170.839V170.591L98.0362 170.517L98.1797 169.422C98.1867 169.387 98.2019 169.359 98.2252 169.338C98.2509 169.315 98.2835 169.303 98.3232 169.303H98.6382V170.524H99.6637V170.976H98.6382V173.104C98.6382 173.253 98.6744 173.364 98.7467 173.436C98.819 173.509 98.9124 173.545 99.0267 173.545C99.092 173.545 99.148 173.537 99.1947 173.52C99.2437 173.502 99.2857 173.482 99.3207 173.461C99.3557 173.44 99.3849 173.421 99.4082 173.405C99.4339 173.386 99.456 173.377 99.4747 173.377C99.5074 173.377 99.5365 173.397 99.5622 173.436L99.7442 173.734C99.6369 173.834 99.5074 173.914 99.3557 173.972C99.204 174.028 99.0477 174.056 98.8867 174.056ZM103.222 170.454V174H102.851C102.763 174 102.707 173.957 102.683 173.87L102.634 173.489C102.48 173.659 102.308 173.797 102.116 173.902C101.925 174.005 101.706 174.056 101.458 174.056C101.265 174.056 101.093 174.025 100.944 173.961C100.797 173.896 100.673 173.805 100.573 173.688C100.473 173.572 100.397 173.431 100.345 173.265C100.296 173.099 100.272 172.916 100.272 172.715V170.454H100.895V172.715C100.895 172.984 100.956 173.191 101.077 173.338C101.201 173.485 101.388 173.559 101.64 173.559C101.825 173.559 101.996 173.516 102.155 173.429C102.316 173.341 102.464 173.219 102.599 173.065V170.454H103.222ZM106.593 171.165C106.705 170.922 106.842 170.733 107.006 170.598C107.169 170.46 107.369 170.391 107.604 170.391C107.679 170.391 107.75 170.4 107.818 170.416C107.888 170.432 107.95 170.458 108.003 170.493L107.958 170.958C107.944 171.017 107.909 171.046 107.853 171.046C107.82 171.046 107.772 171.039 107.709 171.025C107.646 171.011 107.575 171.004 107.496 171.004C107.384 171.004 107.283 171.02 107.195 171.053C107.108 171.086 107.03 171.135 106.96 171.2C106.893 171.263 106.831 171.342 106.775 171.438C106.721 171.531 106.672 171.639 106.628 171.76V174H106.001V170.454H106.358C106.426 170.454 106.473 170.467 106.498 170.493C106.524 170.519 106.541 170.563 106.551 170.626L106.593 171.165ZM110.781 171.84C110.781 171.696 110.76 171.564 110.718 171.445C110.678 171.324 110.618 171.22 110.539 171.133C110.462 171.045 110.368 170.977 110.256 170.93C110.144 170.881 110.016 170.857 109.874 170.857C109.575 170.857 109.339 170.944 109.164 171.119C108.991 171.292 108.884 171.532 108.842 171.84H110.781ZM111.285 173.503C111.208 173.596 111.115 173.678 111.008 173.748C110.901 173.816 110.785 173.872 110.662 173.916C110.54 173.96 110.414 173.993 110.284 174.014C110.153 174.037 110.023 174.049 109.895 174.049C109.65 174.049 109.424 174.008 109.216 173.926C109.011 173.842 108.832 173.721 108.681 173.562C108.531 173.401 108.415 173.203 108.331 172.967C108.247 172.732 108.205 172.461 108.205 172.155C108.205 171.908 108.242 171.677 108.317 171.462C108.394 171.248 108.503 171.062 108.646 170.906C108.788 170.747 108.962 170.624 109.167 170.535C109.372 170.444 109.603 170.398 109.86 170.398C110.072 170.398 110.268 170.435 110.448 170.507C110.63 170.577 110.786 170.68 110.917 170.815C111.05 170.948 111.154 171.114 111.229 171.312C111.303 171.508 111.341 171.732 111.341 171.984C111.341 172.082 111.33 172.147 111.309 172.18C111.288 172.213 111.248 172.229 111.19 172.229H108.821C108.828 172.453 108.858 172.648 108.912 172.813C108.968 172.979 109.045 173.118 109.143 173.23C109.241 173.34 109.357 173.422 109.493 173.478C109.628 173.532 109.78 173.559 109.948 173.559C110.104 173.559 110.238 173.541 110.35 173.506C110.464 173.469 110.562 173.429 110.644 173.387C110.726 173.345 110.793 173.307 110.847 173.272C110.903 173.235 110.951 173.216 110.991 173.216C111.042 173.216 111.082 173.236 111.11 173.275L111.285 173.503ZM114.416 171.298C114.299 171.142 114.173 171.033 114.038 170.972C113.902 170.909 113.751 170.878 113.583 170.878C113.254 170.878 113.001 170.996 112.823 171.231C112.646 171.467 112.557 171.803 112.557 172.239C112.557 172.47 112.577 172.669 112.617 172.834C112.656 172.998 112.715 173.133 112.792 173.24C112.869 173.345 112.963 173.422 113.075 173.471C113.187 173.52 113.314 173.545 113.457 173.545C113.662 173.545 113.841 173.498 113.992 173.405C114.146 173.312 114.287 173.18 114.416 173.009V171.298ZM115.039 168.844V174H114.668C114.579 174 114.523 173.957 114.5 173.87L114.444 173.44C114.292 173.622 114.119 173.769 113.926 173.881C113.732 173.993 113.508 174.049 113.254 174.049C113.051 174.049 112.866 174.01 112.701 173.933C112.535 173.854 112.394 173.739 112.277 173.587C112.161 173.435 112.071 173.246 112.008 173.02C111.945 172.794 111.913 172.533 111.913 172.239C111.913 171.978 111.948 171.735 112.018 171.511C112.088 171.285 112.189 171.089 112.319 170.923C112.45 170.758 112.61 170.628 112.799 170.535C112.99 170.439 113.205 170.391 113.443 170.391C113.66 170.391 113.845 170.429 113.999 170.503C114.156 170.576 114.294 170.677 114.416 170.808V168.844H115.039ZM119.879 171.039C119.851 171.09 119.808 171.116 119.749 171.116C119.714 171.116 119.675 171.103 119.63 171.077C119.586 171.052 119.531 171.024 119.466 170.993C119.403 170.961 119.327 170.932 119.238 170.906C119.15 170.878 119.045 170.864 118.923 170.864C118.818 170.864 118.724 170.878 118.64 170.906C118.556 170.932 118.483 170.968 118.423 171.014C118.364 171.061 118.319 171.116 118.286 171.179C118.256 171.24 118.241 171.306 118.241 171.378C118.241 171.469 118.266 171.545 118.318 171.606C118.371 171.667 118.441 171.719 118.528 171.763C118.614 171.808 118.712 171.847 118.822 171.882C118.931 171.915 119.043 171.951 119.158 171.991C119.274 172.028 119.388 172.07 119.497 172.117C119.607 172.164 119.705 172.222 119.791 172.292C119.878 172.362 119.946 172.448 119.998 172.551C120.051 172.651 120.078 172.773 120.078 172.915C120.078 173.078 120.049 173.23 119.991 173.37C119.932 173.508 119.846 173.628 119.732 173.73C119.617 173.831 119.477 173.91 119.312 173.968C119.146 174.027 118.955 174.056 118.738 174.056C118.49 174.056 118.266 174.016 118.066 173.937C117.865 173.855 117.695 173.751 117.555 173.625L117.702 173.387C117.72 173.357 117.743 173.334 117.768 173.317C117.794 173.301 117.827 173.293 117.866 173.293C117.908 173.293 117.953 173.309 117.999 173.342C118.046 173.375 118.102 173.411 118.167 173.45C118.235 173.49 118.317 173.526 118.412 173.559C118.508 173.592 118.627 173.608 118.769 173.608C118.891 173.608 118.997 173.593 119.088 173.562C119.179 173.53 119.255 173.487 119.315 173.433C119.376 173.379 119.42 173.317 119.448 173.247C119.479 173.177 119.494 173.103 119.494 173.023C119.494 172.925 119.467 172.845 119.413 172.782C119.362 172.717 119.293 172.662 119.207 172.617C119.12 172.571 119.021 172.531 118.909 172.498C118.8 172.463 118.686 172.427 118.57 172.39C118.455 172.353 118.342 172.311 118.23 172.264C118.121 172.215 118.023 172.154 117.936 172.082C117.85 172.01 117.78 171.921 117.726 171.816C117.675 171.709 117.649 171.579 117.649 171.427C117.649 171.292 117.677 171.163 117.733 171.039C117.789 170.913 117.871 170.803 117.978 170.71C118.086 170.614 118.217 170.538 118.374 170.483C118.53 170.426 118.709 170.398 118.909 170.398C119.143 170.398 119.351 170.436 119.536 170.51C119.722 170.583 119.883 170.683 120.019 170.811L119.879 171.039ZM122.337 170.398C122.596 170.398 122.829 170.442 123.037 170.528C123.244 170.614 123.422 170.737 123.569 170.895C123.716 171.054 123.828 171.247 123.905 171.473C123.984 171.697 124.024 171.948 124.024 172.225C124.024 172.505 123.984 172.757 123.905 172.981C123.828 173.205 123.716 173.397 123.569 173.555C123.422 173.714 123.244 173.837 123.037 173.923C122.829 174.007 122.596 174.049 122.337 174.049C122.075 174.049 121.84 174.007 121.63 173.923C121.422 173.837 121.245 173.714 121.098 173.555C120.951 173.397 120.837 173.205 120.758 172.981C120.681 172.757 120.643 172.505 120.643 172.225C120.643 171.948 120.681 171.697 120.758 171.473C120.837 171.247 120.951 171.054 121.098 170.895C121.245 170.737 121.422 170.614 121.63 170.528C121.84 170.442 122.075 170.398 122.337 170.398ZM122.337 173.562C122.687 173.562 122.948 173.446 123.121 173.212C123.293 172.977 123.38 172.649 123.38 172.229C123.38 171.807 123.293 171.478 123.121 171.242C122.948 171.006 122.687 170.888 122.337 170.888C122.159 170.888 122.004 170.919 121.871 170.979C121.74 171.04 121.631 171.128 121.542 171.242C121.456 171.356 121.39 171.497 121.346 171.665C121.304 171.831 121.283 172.019 121.283 172.229C121.283 172.649 121.369 172.977 121.542 173.212C121.717 173.446 121.982 173.562 122.337 173.562ZM127.281 171.084C127.263 171.11 127.244 171.13 127.225 171.144C127.207 171.158 127.181 171.165 127.148 171.165C127.113 171.165 127.075 171.151 127.033 171.123C126.991 171.093 126.938 171.06 126.875 171.025C126.815 170.99 126.739 170.958 126.648 170.93C126.559 170.9 126.449 170.885 126.319 170.885C126.144 170.885 125.99 170.916 125.857 170.979C125.724 171.04 125.612 171.129 125.521 171.245C125.432 171.362 125.364 171.503 125.318 171.669C125.273 171.835 125.251 172.02 125.251 172.225C125.251 172.44 125.276 172.631 125.325 172.799C125.374 172.965 125.443 173.105 125.531 173.219C125.622 173.331 125.731 173.418 125.857 173.478C125.985 173.537 126.129 173.566 126.287 173.566C126.439 173.566 126.564 173.548 126.662 173.513C126.76 173.476 126.84 173.435 126.903 173.391C126.969 173.347 127.022 173.307 127.064 173.272C127.109 173.235 127.152 173.216 127.194 173.216C127.245 173.216 127.285 173.236 127.313 173.275L127.488 173.503C127.411 173.599 127.323 173.68 127.225 173.748C127.127 173.816 127.021 173.873 126.907 173.919C126.795 173.964 126.677 173.996 126.553 174.018C126.43 174.039 126.304 174.049 126.175 174.049C125.954 174.049 125.747 174.008 125.556 173.926C125.367 173.845 125.202 173.727 125.062 173.573C124.922 173.417 124.813 173.225 124.733 172.999C124.654 172.773 124.614 172.515 124.614 172.225C124.614 171.962 124.65 171.718 124.723 171.494C124.797 171.27 124.905 171.077 125.045 170.916C125.187 170.753 125.361 170.626 125.566 170.535C125.774 170.444 126.012 170.398 126.28 170.398C126.53 170.398 126.749 170.439 126.938 170.521C127.13 170.6 127.299 170.713 127.446 170.86L127.281 171.084ZM128.815 170.454V174H128.192V170.454H128.815ZM128.948 169.341C128.948 169.402 128.935 169.459 128.909 169.513C128.886 169.564 128.853 169.611 128.811 169.653C128.771 169.693 128.724 169.724 128.668 169.747C128.614 169.771 128.557 169.782 128.496 169.782C128.435 169.782 128.378 169.771 128.325 169.747C128.273 169.724 128.228 169.693 128.188 169.653C128.148 169.611 128.117 169.564 128.094 169.513C128.07 169.459 128.059 169.402 128.059 169.341C128.059 169.281 128.07 169.224 128.094 169.17C128.117 169.114 128.148 169.066 128.188 169.026C128.228 168.984 128.273 168.952 128.325 168.928C128.378 168.905 128.435 168.893 128.496 168.893C128.557 168.893 128.614 168.905 128.668 168.928C128.724 168.952 128.771 168.984 128.811 169.026C128.853 169.066 128.886 169.114 128.909 169.17C128.935 169.224 128.948 169.281 128.948 169.341ZM131.76 172.404C131.473 172.413 131.228 172.437 131.025 172.474C130.824 172.509 130.66 172.556 130.531 172.614C130.405 172.672 130.313 172.741 130.255 172.82C130.199 172.9 130.171 172.988 130.171 173.086C130.171 173.18 130.186 173.26 130.216 173.328C130.247 173.396 130.287 173.452 130.339 173.496C130.392 173.538 130.454 173.569 130.524 173.59C130.597 173.609 130.674 173.618 130.755 173.618C130.865 173.618 130.965 173.608 131.056 173.587C131.147 173.564 131.232 173.531 131.312 173.489C131.393 173.447 131.47 173.397 131.543 173.338C131.617 173.28 131.69 173.214 131.76 173.139V172.404ZM129.747 170.955C129.943 170.766 130.154 170.625 130.381 170.531C130.607 170.438 130.858 170.391 131.133 170.391C131.332 170.391 131.508 170.424 131.662 170.489C131.816 170.555 131.945 170.646 132.05 170.762C132.155 170.879 132.235 171.02 132.288 171.186C132.342 171.352 132.369 171.534 132.369 171.732V174H132.092C132.032 174 131.985 173.991 131.952 173.972C131.92 173.951 131.894 173.911 131.875 173.853L131.805 173.517C131.712 173.603 131.621 173.68 131.532 173.748C131.444 173.813 131.35 173.869 131.252 173.916C131.154 173.96 131.049 173.994 130.937 174.018C130.828 174.043 130.705 174.056 130.57 174.056C130.432 174.056 130.303 174.037 130.181 174C130.06 173.96 129.954 173.902 129.863 173.825C129.774 173.748 129.703 173.651 129.649 173.534C129.598 173.415 129.572 173.275 129.572 173.114C129.572 172.974 129.611 172.84 129.688 172.712C129.765 172.581 129.89 172.466 130.062 172.365C130.235 172.265 130.46 172.183 130.738 172.12C131.015 172.055 131.356 172.018 131.76 172.008V171.732C131.76 171.457 131.7 171.249 131.581 171.109C131.462 170.967 131.288 170.895 131.06 170.895C130.906 170.895 130.776 170.915 130.671 170.955C130.569 170.992 130.479 171.035 130.402 171.084C130.327 171.131 130.262 171.174 130.206 171.214C130.152 171.251 130.098 171.27 130.045 171.27C130.003 171.27 129.967 171.259 129.936 171.238C129.906 171.215 129.88 171.187 129.859 171.154L129.747 170.955ZM133.962 168.844V174H133.339V168.844H133.962ZM137.351 170.969C137.428 170.883 137.51 170.804 137.596 170.734C137.682 170.664 137.773 170.605 137.869 170.556C137.967 170.505 138.07 170.466 138.177 170.44C138.287 170.412 138.405 170.398 138.531 170.398C138.724 170.398 138.895 170.431 139.042 170.496C139.191 170.559 139.315 170.65 139.413 170.769C139.513 170.886 139.589 171.027 139.64 171.193C139.691 171.359 139.717 171.542 139.717 171.742V174H139.091V171.742C139.091 171.474 139.029 171.266 138.905 171.119C138.784 170.97 138.598 170.895 138.349 170.895C138.164 170.895 137.992 170.94 137.831 171.028C137.672 171.117 137.525 171.237 137.39 171.389V174H136.763V170.454H137.138C137.226 170.454 137.281 170.498 137.302 170.584L137.351 170.969ZM143.039 171.84C143.039 171.696 143.018 171.564 142.976 171.445C142.937 171.324 142.877 171.22 142.798 171.133C142.721 171.045 142.626 170.977 142.514 170.93C142.402 170.881 142.275 170.857 142.133 170.857C141.834 170.857 141.597 170.944 141.422 171.119C141.25 171.292 141.142 171.532 141.1 171.84H143.039ZM143.543 173.503C143.466 173.596 143.374 173.678 143.267 173.748C143.16 173.816 143.044 173.872 142.92 173.916C142.799 173.96 142.673 173.993 142.542 174.014C142.412 174.037 142.282 174.049 142.154 174.049C141.909 174.049 141.683 174.008 141.475 173.926C141.27 173.842 141.091 173.721 140.939 173.562C140.79 173.401 140.673 173.203 140.589 172.967C140.505 172.732 140.463 172.461 140.463 172.155C140.463 171.908 140.501 171.677 140.575 171.462C140.652 171.248 140.762 171.062 140.904 170.906C141.047 170.747 141.221 170.624 141.426 170.535C141.631 170.444 141.862 170.398 142.119 170.398C142.331 170.398 142.527 170.435 142.707 170.507C142.889 170.577 143.045 170.68 143.176 170.815C143.309 170.948 143.413 171.114 143.487 171.312C143.562 171.508 143.599 171.732 143.599 171.984C143.599 172.082 143.589 172.147 143.568 172.18C143.547 172.213 143.507 172.229 143.449 172.229H141.079C141.086 172.453 141.117 172.648 141.17 172.813C141.226 172.979 141.303 173.118 141.401 173.23C141.499 173.34 141.616 173.422 141.751 173.478C141.887 173.532 142.038 173.559 142.206 173.559C142.363 173.559 142.497 173.541 142.609 173.506C142.723 173.469 142.821 173.429 142.903 173.387C142.985 173.345 143.052 173.307 143.106 173.272C143.162 173.235 143.21 173.216 143.249 173.216C143.301 173.216 143.34 173.236 143.368 173.275L143.543 173.503ZM146.832 171.084C146.813 171.11 146.795 171.13 146.776 171.144C146.757 171.158 146.732 171.165 146.699 171.165C146.664 171.165 146.626 171.151 146.584 171.123C146.542 171.093 146.489 171.06 146.426 171.025C146.365 170.99 146.29 170.958 146.199 170.93C146.11 170.9 146 170.885 145.87 170.885C145.695 170.885 145.541 170.916 145.408 170.979C145.275 171.04 145.163 171.129 145.072 171.245C144.983 171.362 144.915 171.503 144.869 171.669C144.824 171.835 144.802 172.02 144.802 172.225C144.802 172.44 144.827 172.631 144.876 172.799C144.925 172.965 144.993 173.105 145.082 173.219C145.173 173.331 145.282 173.418 145.408 173.478C145.536 173.537 145.679 173.566 145.838 173.566C145.99 173.566 146.115 173.548 146.213 173.513C146.311 173.476 146.391 173.435 146.454 173.391C146.519 173.347 146.573 173.307 146.615 173.272C146.659 173.235 146.703 173.216 146.745 173.216C146.796 173.216 146.836 173.236 146.864 173.275L147.039 173.503C146.962 173.599 146.874 173.68 146.776 173.748C146.678 173.816 146.572 173.873 146.458 173.919C146.346 173.964 146.228 173.996 146.104 174.018C145.98 174.039 145.854 174.049 145.726 174.049C145.504 174.049 145.298 174.008 145.107 173.926C144.918 173.845 144.753 173.727 144.613 173.573C144.473 173.417 144.363 173.225 144.284 172.999C144.205 172.773 144.165 172.515 144.165 172.225C144.165 171.962 144.201 171.718 144.274 171.494C144.348 171.27 144.456 171.077 144.596 170.916C144.738 170.753 144.912 170.626 145.117 170.535C145.325 170.444 145.563 170.398 145.831 170.398C146.081 170.398 146.3 170.439 146.489 170.521C146.68 170.6 146.85 170.713 146.997 170.86L146.832 171.084ZM150.019 171.84C150.019 171.696 149.998 171.564 149.956 171.445C149.916 171.324 149.857 171.22 149.777 171.133C149.7 171.045 149.606 170.977 149.494 170.93C149.382 170.881 149.255 170.857 149.112 170.857C148.814 170.857 148.577 170.944 148.402 171.119C148.229 171.292 148.122 171.532 148.08 171.84H150.019ZM150.523 173.503C150.446 173.596 150.354 173.678 150.246 173.748C150.139 173.816 150.024 173.872 149.9 173.916C149.779 173.96 149.653 173.993 149.522 174.014C149.391 174.037 149.262 174.049 149.133 174.049C148.888 174.049 148.662 174.008 148.454 173.926C148.249 173.842 148.071 173.721 147.919 173.562C147.77 173.401 147.653 173.203 147.569 172.967C147.485 172.732 147.443 172.461 147.443 172.155C147.443 171.908 147.48 171.677 147.555 171.462C147.632 171.248 147.742 171.062 147.884 170.906C148.026 170.747 148.2 170.624 148.405 170.535C148.611 170.444 148.842 170.398 149.098 170.398C149.311 170.398 149.507 170.435 149.686 170.507C149.868 170.577 150.025 170.68 150.155 170.815C150.288 170.948 150.392 171.114 150.467 171.312C150.542 171.508 150.579 171.732 150.579 171.984C150.579 172.082 150.568 172.147 150.547 172.18C150.526 172.213 150.487 172.229 150.428 172.229H148.059C148.066 172.453 148.096 172.648 148.15 172.813C148.206 172.979 148.283 173.118 148.381 173.23C148.479 173.34 148.596 173.422 148.731 173.478C148.866 173.532 149.018 173.559 149.186 173.559C149.342 173.559 149.476 173.541 149.588 173.506C149.703 173.469 149.801 173.429 149.882 173.387C149.964 173.345 150.032 173.307 150.085 173.272C150.141 173.235 150.189 173.216 150.229 173.216C150.28 173.216 150.32 173.236 150.348 173.275L150.523 173.503ZM153.409 171.039C153.381 171.09 153.338 171.116 153.28 171.116C153.245 171.116 153.205 171.103 153.161 171.077C153.116 171.052 153.061 171.024 152.996 170.993C152.933 170.961 152.857 170.932 152.769 170.906C152.68 170.878 152.575 170.864 152.454 170.864C152.349 170.864 152.254 170.878 152.17 170.906C152.086 170.932 152.014 170.968 151.953 171.014C151.895 171.061 151.849 171.116 151.817 171.179C151.786 171.24 151.771 171.306 151.771 171.378C151.771 171.469 151.797 171.545 151.848 171.606C151.902 171.667 151.972 171.719 152.058 171.763C152.144 171.808 152.242 171.847 152.352 171.882C152.462 171.915 152.574 171.951 152.688 171.991C152.805 172.028 152.918 172.07 153.028 172.117C153.137 172.164 153.235 172.222 153.322 172.292C153.408 172.362 153.477 172.448 153.528 172.551C153.582 172.651 153.609 172.773 153.609 172.915C153.609 173.078 153.579 173.23 153.521 173.37C153.463 173.508 153.376 173.628 153.262 173.73C153.148 173.831 153.008 173.91 152.842 173.968C152.676 174.027 152.485 174.056 152.268 174.056C152.021 174.056 151.797 174.016 151.596 173.937C151.395 173.855 151.225 173.751 151.085 173.625L151.232 173.387C151.251 173.357 151.273 173.334 151.299 173.317C151.324 173.301 151.357 173.293 151.397 173.293C151.439 173.293 151.483 173.309 151.53 173.342C151.576 173.375 151.632 173.411 151.698 173.45C151.765 173.49 151.847 173.526 151.943 173.559C152.038 173.592 152.157 173.608 152.3 173.608C152.421 173.608 152.527 173.593 152.618 173.562C152.709 173.53 152.785 173.487 152.846 173.433C152.906 173.379 152.951 173.317 152.979 173.247C153.009 173.177 153.024 173.103 153.024 173.023C153.024 172.925 152.997 172.845 152.944 172.782C152.892 172.717 152.823 172.662 152.737 172.617C152.651 172.571 152.552 172.531 152.44 172.498C152.33 172.463 152.217 172.427 152.1 172.39C151.986 172.353 151.873 172.311 151.761 172.264C151.651 172.215 151.553 172.154 151.467 172.082C151.38 172.01 151.31 171.921 151.257 171.816C151.205 171.709 151.18 171.579 151.18 171.427C151.18 171.292 151.208 171.163 151.264 171.039C151.32 170.913 151.401 170.803 151.509 170.71C151.616 170.614 151.748 170.538 151.904 170.483C152.06 170.426 152.239 170.398 152.44 170.398C152.673 170.398 152.882 170.436 153.066 170.51C153.253 170.583 153.414 170.683 153.549 170.811L153.409 171.039ZM155.03 170.454V174H154.407V170.454H155.03ZM155.163 169.341C155.163 169.402 155.151 169.459 155.125 169.513C155.102 169.564 155.069 169.611 155.027 169.653C154.987 169.693 154.939 169.724 154.883 169.747C154.83 169.771 154.773 169.782 154.712 169.782C154.651 169.782 154.594 169.771 154.54 169.747C154.489 169.724 154.444 169.693 154.404 169.653C154.364 169.611 154.333 169.564 154.309 169.513C154.286 169.459 154.274 169.402 154.274 169.341C154.274 169.281 154.286 169.224 154.309 169.17C154.333 169.114 154.364 169.066 154.404 169.026C154.444 168.984 154.489 168.952 154.54 168.928C154.594 168.905 154.651 168.893 154.712 168.893C154.773 168.893 154.83 168.905 154.883 168.928C154.939 168.952 154.987 168.984 155.027 169.026C155.069 169.066 155.102 169.114 155.125 169.17C155.151 169.224 155.163 169.281 155.163 169.341ZM157.143 174.056C156.863 174.056 156.647 173.978 156.495 173.821C156.346 173.665 156.271 173.44 156.271 173.146V170.976H155.844C155.807 170.976 155.775 170.965 155.75 170.944C155.724 170.921 155.711 170.886 155.711 170.839V170.591L156.292 170.517L156.436 169.422C156.443 169.387 156.458 169.359 156.481 169.338C156.507 169.315 156.539 169.303 156.579 169.303H156.894V170.524H157.92V170.976H156.894V173.104C156.894 173.253 156.93 173.364 157.003 173.436C157.075 173.509 157.168 173.545 157.283 173.545C157.348 173.545 157.404 173.537 157.451 173.52C157.5 173.502 157.542 173.482 157.577 173.461C157.612 173.44 157.641 173.421 157.664 173.405C157.69 173.386 157.712 173.377 157.731 173.377C157.763 173.377 157.792 173.397 157.818 173.436L158 173.734C157.893 173.834 157.763 173.914 157.612 173.972C157.46 174.028 157.304 174.056 157.143 174.056ZM160.484 172.404C160.197 172.413 159.952 172.437 159.749 172.474C159.549 172.509 159.384 172.556 159.256 172.614C159.13 172.672 159.038 172.741 158.979 172.82C158.923 172.9 158.895 172.988 158.895 173.086C158.895 173.18 158.911 173.26 158.941 173.328C158.971 173.396 159.012 173.452 159.063 173.496C159.117 173.538 159.179 173.569 159.249 173.59C159.321 173.609 159.398 173.618 159.48 173.618C159.59 173.618 159.69 173.608 159.781 173.587C159.872 173.564 159.957 173.531 160.036 173.489C160.118 173.447 160.195 173.397 160.267 173.338C160.342 173.28 160.414 173.214 160.484 173.139V172.404ZM158.472 170.955C158.668 170.766 158.879 170.625 159.105 170.531C159.332 170.438 159.583 170.391 159.858 170.391C160.056 170.391 160.232 170.424 160.386 170.489C160.54 170.555 160.67 170.646 160.775 170.762C160.88 170.879 160.959 171.02 161.013 171.186C161.067 171.352 161.093 171.534 161.093 171.732V174H160.817C160.756 174 160.71 173.991 160.677 173.972C160.644 173.951 160.619 173.911 160.6 173.853L160.53 173.517C160.437 173.603 160.346 173.68 160.257 173.748C160.168 173.813 160.075 173.869 159.977 173.916C159.879 173.96 159.774 173.994 159.662 174.018C159.552 174.043 159.43 174.056 159.294 174.056C159.157 174.056 159.027 174.037 158.906 174C158.785 173.96 158.678 173.902 158.587 173.825C158.499 173.748 158.428 173.651 158.374 173.534C158.323 173.415 158.297 173.275 158.297 173.114C158.297 172.974 158.335 172.84 158.412 172.712C158.489 172.581 158.614 172.466 158.787 172.365C158.96 172.265 159.185 172.183 159.462 172.12C159.74 172.055 160.081 172.018 160.484 172.008V171.732C160.484 171.457 160.425 171.249 160.306 171.109C160.187 170.967 160.013 170.895 159.784 170.895C159.63 170.895 159.501 170.915 159.396 170.955C159.293 170.992 159.203 171.035 159.126 171.084C159.052 171.131 158.986 171.174 158.93 171.214C158.877 171.251 158.823 171.27 158.769 171.27C158.727 171.27 158.691 171.259 158.661 171.238C158.631 171.215 158.605 171.187 158.584 171.154L158.472 170.955ZM69.1088 181.146C69.2231 181.3 69.3479 181.408 69.4833 181.471C69.6186 181.534 69.7703 181.566 69.9383 181.566C70.2696 181.566 70.5239 181.448 70.7013 181.212C70.8786 180.977 70.9673 180.641 70.9673 180.204C70.9673 179.973 70.9463 179.775 70.9043 179.609C70.8646 179.444 70.8063 179.308 70.7293 179.203C70.6523 179.096 70.5578 179.018 70.4458 178.969C70.3338 178.92 70.2066 178.895 70.0643 178.895C69.8613 178.895 69.6828 178.942 69.5288 179.035C69.3771 179.129 69.2371 179.261 69.1088 179.431V181.146ZM69.0773 179.004C69.2266 178.82 69.3993 178.671 69.5953 178.559C69.7913 178.447 70.0153 178.391 70.2673 178.391C70.4726 178.391 70.6581 178.431 70.8238 178.51C70.9894 178.587 71.1306 178.703 71.2473 178.857C71.3639 179.009 71.4538 179.198 71.5168 179.424C71.5798 179.65 71.6113 179.91 71.6113 180.204C71.6113 180.466 71.5763 180.71 71.5063 180.936C71.4363 181.16 71.3348 181.355 71.2018 181.52C71.0711 181.684 70.9101 181.813 70.7188 181.909C70.5298 182.002 70.3163 182.049 70.0783 182.049C69.8613 182.049 69.6746 182.013 69.5183 181.94C69.3643 181.866 69.2278 181.763 69.1088 181.632V183.201H68.4823V178.454H68.8568C68.9454 178.454 69.0003 178.498 69.0213 178.584L69.0773 179.004ZM74.3276 180.404C74.0406 180.413 73.7956 180.437 73.5926 180.474C73.3919 180.509 73.2274 180.556 73.0991 180.614C72.9731 180.672 72.8809 180.741 72.8226 180.82C72.7666 180.9 72.7386 180.988 72.7386 181.086C72.7386 181.18 72.7538 181.26 72.7841 181.328C72.8144 181.396 72.8553 181.452 72.9066 181.496C72.9603 181.538 73.0221 181.569 73.0921 181.59C73.1644 181.609 73.2414 181.618 73.3231 181.618C73.4328 181.618 73.5331 181.608 73.6241 181.587C73.7151 181.564 73.8003 181.531 73.8796 181.489C73.9613 181.447 74.0383 181.397 74.1106 181.338C74.1853 181.28 74.2576 181.214 74.3276 181.139V180.404ZM72.3151 178.955C72.5111 178.766 72.7223 178.625 72.9486 178.531C73.1749 178.438 73.4258 178.391 73.7011 178.391C73.8994 178.391 74.0756 178.424 74.2296 178.489C74.3836 178.555 74.5131 178.646 74.6181 178.762C74.7231 178.879 74.8024 179.02 74.8561 179.186C74.9098 179.352 74.9366 179.534 74.9366 179.732V182H74.6601C74.5994 182 74.5528 181.991 74.5201 181.972C74.4874 181.951 74.4618 181.911 74.4431 181.853L74.3731 181.517C74.2798 181.603 74.1888 181.68 74.1001 181.748C74.0114 181.813 73.9181 181.869 73.8201 181.916C73.7221 181.96 73.6171 181.994 73.5051 182.018C73.3954 182.043 73.2729 182.056 73.1376 182.056C72.9999 182.056 72.8704 182.037 72.7491 182C72.6278 181.96 72.5216 181.902 72.4306 181.825C72.3419 181.748 72.2708 181.651 72.2171 181.534C72.1658 181.415 72.1401 181.275 72.1401 181.114C72.1401 180.974 72.1786 180.84 72.2556 180.712C72.3326 180.581 72.4574 180.466 72.6301 180.365C72.8028 180.265 73.0279 180.183 73.3056 180.12C73.5833 180.055 73.9239 180.018 74.3276 180.008V179.732C74.3276 179.457 74.2681 179.249 74.1491 179.109C74.0301 178.967 73.8563 178.895 73.6276 178.895C73.4736 178.895 73.3441 178.915 73.2391 178.955C73.1364 178.992 73.0466 179.035 72.9696 179.084C72.8949 179.131 72.8296 179.174 72.7736 179.214C72.7199 179.251 72.6663 179.27 72.6126 179.27C72.5706 179.27 72.5344 179.259 72.5041 179.238C72.4738 179.215 72.4481 179.187 72.4271 179.154L72.3151 178.955ZM76.4771 179.165C76.5891 178.922 76.7268 178.733 76.8901 178.598C77.0534 178.46 77.2529 178.391 77.4886 178.391C77.5633 178.391 77.6344 178.4 77.7021 178.416C77.7721 178.432 77.8339 178.458 77.8876 178.493L77.8421 178.958C77.8281 179.017 77.7931 179.046 77.7371 179.046C77.7044 179.046 77.6566 179.039 77.5936 179.025C77.5306 179.011 77.4594 179.004 77.3801 179.004C77.2681 179.004 77.1678 179.02 77.0791 179.053C76.9928 179.086 76.9146 179.135 76.8446 179.2C76.7769 179.263 76.7151 179.342 76.6591 179.438C76.6054 179.531 76.5564 179.639 76.5121 179.76V182H75.8856V178.454H76.2426C76.3103 178.454 76.3569 178.467 76.3826 178.493C76.4083 178.519 76.4258 178.563 76.4351 178.626L76.4771 179.165ZM80.3022 180.404C80.0152 180.413 79.7702 180.437 79.5672 180.474C79.3665 180.509 79.202 180.556 79.0737 180.614C78.9477 180.672 78.8555 180.741 78.7972 180.82C78.7412 180.9 78.7132 180.988 78.7132 181.086C78.7132 181.18 78.7284 181.26 78.7587 181.328C78.789 181.396 78.8299 181.452 78.8812 181.496C78.9349 181.538 78.9967 181.569 79.0667 181.59C79.139 181.609 79.216 181.618 79.2977 181.618C79.4074 181.618 79.5077 181.608 79.5987 181.587C79.6897 181.564 79.7749 181.531 79.8542 181.489C79.9359 181.447 80.0129 181.397 80.0852 181.338C80.1599 181.28 80.2322 181.214 80.3022 181.139V180.404ZM78.2897 178.955C78.4857 178.766 78.6969 178.625 78.9232 178.531C79.1495 178.438 79.4004 178.391 79.6757 178.391C79.874 178.391 80.0502 178.424 80.2042 178.489C80.3582 178.555 80.4877 178.646 80.5927 178.762C80.6977 178.879 80.777 179.02 80.8307 179.186C80.8844 179.352 80.9112 179.534 80.9112 179.732V182H80.6347C80.574 182 80.5274 181.991 80.4947 181.972C80.462 181.951 80.4364 181.911 80.4177 181.853L80.3477 181.517C80.2544 181.603 80.1634 181.68 80.0747 181.748C79.986 181.813 79.8927 181.869 79.7947 181.916C79.6967 181.96 79.5917 181.994 79.4797 182.018C79.37 182.043 79.2475 182.056 79.1122 182.056C78.9745 182.056 78.845 182.037 78.7237 182C78.6024 181.96 78.4962 181.902 78.4052 181.825C78.3165 181.748 78.2454 181.651 78.1917 181.534C78.1404 181.415 78.1147 181.275 78.1147 181.114C78.1147 180.974 78.1532 180.84 78.2302 180.712C78.3072 180.581 78.432 180.466 78.6047 180.365C78.7774 180.265 79.0025 180.183 79.2802 180.12C79.5579 180.055 79.8985 180.018 80.3022 180.008V179.732C80.3022 179.457 80.2427 179.249 80.1237 179.109C80.0047 178.967 79.8309 178.895 79.6022 178.895C79.4482 178.895 79.3187 178.915 79.2137 178.955C79.111 178.992 79.0212 179.035 78.9442 179.084C78.8695 179.131 78.8042 179.174 78.7482 179.214C78.6945 179.251 78.6409 179.27 78.5872 179.27C78.5452 179.27 78.509 179.259 78.4787 179.238C78.4484 179.215 78.4227 179.187 78.4017 179.154L78.2897 178.955ZM85.9612 179.298C85.8445 179.142 85.7185 179.033 85.5832 178.972C85.4479 178.909 85.2962 178.878 85.1282 178.878C84.7992 178.878 84.546 178.996 84.3687 179.231C84.1914 179.467 84.1027 179.803 84.1027 180.239C84.1027 180.47 84.1225 180.669 84.1622 180.834C84.2019 180.998 84.2602 181.133 84.3372 181.24C84.4142 181.345 84.5087 181.422 84.6207 181.471C84.7327 181.52 84.8599 181.545 85.0022 181.545C85.2075 181.545 85.386 181.498 85.5377 181.405C85.6917 181.312 85.8329 181.18 85.9612 181.009V179.298ZM86.5842 176.844V182H86.2132C86.1245 182 86.0685 181.957 86.0452 181.87L85.9892 181.44C85.8375 181.622 85.6649 181.769 85.4712 181.881C85.2775 181.993 85.0535 182.049 84.7992 182.049C84.5962 182.049 84.4119 182.01 84.2462 181.933C84.0805 181.854 83.9394 181.739 83.8227 181.587C83.706 181.435 83.6162 181.246 83.5532 181.02C83.4902 180.794 83.4587 180.533 83.4587 180.239C83.4587 179.978 83.4937 179.735 83.5637 179.511C83.6337 179.285 83.734 179.089 83.8647 178.923C83.9954 178.758 84.1552 178.628 84.3442 178.535C84.5355 178.439 84.7502 178.391 84.9882 178.391C85.2052 178.391 85.3907 178.429 85.5447 178.503C85.701 178.576 85.8399 178.677 85.9612 178.808V176.844H86.5842ZM89.9412 179.84C89.9412 179.696 89.9202 179.564 89.8782 179.445C89.8385 179.324 89.779 179.22 89.6997 179.133C89.6227 179.045 89.5282 178.977 89.4162 178.93C89.3042 178.881 89.177 178.857 89.0347 178.857C88.736 178.857 88.4992 178.944 88.3242 179.119C88.1515 179.292 88.0442 179.532 88.0022 179.84H89.9412ZM90.4452 181.503C90.3682 181.596 90.276 181.678 90.1687 181.748C90.0614 181.816 89.9459 181.872 89.8222 181.916C89.7009 181.96 89.5749 181.993 89.4442 182.014C89.3135 182.037 89.184 182.049 89.0557 182.049C88.8107 182.049 88.5844 182.008 88.3767 181.926C88.1714 181.842 87.9929 181.721 87.8412 181.562C87.6919 181.401 87.5752 181.203 87.4912 180.967C87.4072 180.732 87.3652 180.461 87.3652 180.155C87.3652 179.908 87.4025 179.677 87.4772 179.462C87.5542 179.248 87.6639 179.062 87.8062 178.906C87.9485 178.747 88.1224 178.624 88.3277 178.535C88.533 178.444 88.764 178.398 89.0207 178.398C89.233 178.398 89.429 178.435 89.6087 178.507C89.7907 178.577 89.947 178.68 90.0777 178.815C90.2107 178.948 90.3145 179.114 90.3892 179.312C90.4639 179.508 90.5012 179.732 90.5012 179.984C90.5012 180.082 90.4907 180.147 90.4697 180.18C90.4487 180.213 90.409 180.229 90.3507 180.229H87.9812C87.9882 180.453 88.0185 180.648 88.0722 180.813C88.1282 180.979 88.2052 181.118 88.3032 181.23C88.4012 181.34 88.5179 181.422 88.6532 181.478C88.7885 181.532 88.9402 181.559 89.1082 181.559C89.2645 181.559 89.3987 181.541 89.5107 181.506C89.625 181.469 89.723 181.429 89.8047 181.387C89.8864 181.345 89.954 181.307 90.0077 181.272C90.0637 181.235 90.1115 181.216 90.1512 181.216C90.2025 181.216 90.2422 181.236 90.2702 181.275L90.4452 181.503ZM93.3314 179.039C93.3034 179.09 93.2603 179.116 93.2019 179.116C93.1669 179.116 93.1273 179.103 93.0829 179.077C93.0386 179.052 92.9838 179.024 92.9184 178.993C92.8554 178.961 92.7796 178.932 92.6909 178.906C92.6023 178.878 92.4973 178.864 92.3759 178.864C92.2709 178.864 92.1764 178.878 92.0924 178.906C92.0084 178.932 91.9361 178.968 91.8754 179.014C91.8171 179.061 91.7716 179.116 91.7389 179.179C91.7086 179.24 91.6934 179.306 91.6934 179.378C91.6934 179.469 91.7191 179.545 91.7704 179.606C91.8241 179.667 91.8941 179.719 91.9804 179.763C92.0668 179.808 92.1648 179.847 92.2744 179.882C92.3841 179.915 92.4961 179.951 92.6104 179.991C92.7271 180.028 92.8403 180.07 92.9499 180.117C93.0596 180.164 93.1576 180.222 93.2439 180.292C93.3303 180.362 93.3991 180.448 93.4504 180.551C93.5041 180.651 93.5309 180.773 93.5309 180.915C93.5309 181.078 93.5018 181.23 93.4434 181.37C93.3851 181.508 93.2988 181.628 93.1844 181.73C93.0701 181.831 92.9301 181.91 92.7644 181.968C92.5988 182.027 92.4074 182.056 92.1904 182.056C91.9431 182.056 91.7191 182.016 91.5184 181.937C91.3178 181.855 91.1474 181.751 91.0074 181.625L91.1544 181.387C91.1731 181.357 91.1953 181.334 91.2209 181.317C91.2466 181.301 91.2793 181.293 91.3189 181.293C91.3609 181.293 91.4053 181.309 91.4519 181.342C91.4986 181.375 91.5546 181.411 91.6199 181.45C91.6876 181.49 91.7693 181.526 91.8649 181.559C91.9606 181.592 92.0796 181.608 92.2219 181.608C92.3433 181.608 92.4494 181.593 92.5404 181.562C92.6314 181.53 92.7073 181.487 92.7679 181.433C92.8286 181.379 92.8729 181.317 92.9009 181.247C92.9313 181.177 92.9464 181.103 92.9464 181.023C92.9464 180.925 92.9196 180.845 92.8659 180.782C92.8146 180.717 92.7458 180.662 92.6594 180.617C92.5731 180.571 92.4739 180.531 92.3619 180.498C92.2523 180.463 92.1391 180.427 92.0224 180.39C91.9081 180.353 91.7949 180.311 91.6829 180.264C91.5733 180.215 91.4753 180.154 91.3889 180.082C91.3026 180.01 91.2326 179.921 91.1789 179.816C91.1276 179.709 91.1019 179.579 91.1019 179.427C91.1019 179.292 91.1299 179.163 91.1859 179.039C91.2419 178.913 91.3236 178.803 91.4309 178.71C91.5383 178.614 91.6701 178.538 91.8264 178.483C91.9828 178.426 92.1613 178.398 92.3619 178.398C92.5953 178.398 92.8041 178.436 92.9884 178.51C93.1751 178.583 93.3361 178.683 93.4714 178.811L93.3314 179.039ZM95.3833 182.056C95.1033 182.056 94.8874 181.978 94.7358 181.821C94.5864 181.665 94.5118 181.44 94.5118 181.146V178.976H94.0848C94.0474 178.976 94.0159 178.965 93.9903 178.944C93.9646 178.921 93.9518 178.886 93.9518 178.839V178.591L94.5328 178.517L94.6763 177.422C94.6833 177.387 94.6984 177.359 94.7218 177.338C94.7474 177.315 94.7801 177.303 94.8198 177.303H95.1348V178.524H96.1603V178.976H95.1348V181.104C95.1348 181.253 95.1709 181.364 95.2433 181.436C95.3156 181.509 95.4089 181.545 95.5233 181.545C95.5886 181.545 95.6446 181.537 95.6913 181.52C95.7403 181.502 95.7823 181.482 95.8173 181.461C95.8523 181.44 95.8814 181.421 95.9048 181.405C95.9304 181.386 95.9526 181.377 95.9713 181.377C96.0039 181.377 96.0331 181.397 96.0588 181.436L96.2408 181.734C96.1334 181.834 96.0039 181.914 95.8523 181.972C95.7006 182.028 95.5443 182.056 95.3833 182.056ZM98.7251 180.404C98.4381 180.413 98.1931 180.437 97.9901 180.474C97.7894 180.509 97.6249 180.556 97.4966 180.614C97.3706 180.672 97.2784 180.741 97.2201 180.82C97.1641 180.9 97.1361 180.988 97.1361 181.086C97.1361 181.18 97.1512 181.26 97.1816 181.328C97.2119 181.396 97.2527 181.452 97.3041 181.496C97.3577 181.538 97.4196 181.569 97.4896 181.59C97.5619 181.609 97.6389 181.618 97.7206 181.618C97.8302 181.618 97.9306 181.608 98.0216 181.587C98.1126 181.564 98.1977 181.531 98.2771 181.489C98.3587 181.447 98.4357 181.397 98.5081 181.338C98.5827 181.28 98.6551 181.214 98.7251 181.139V180.404ZM96.7126 178.955C96.9086 178.766 97.1197 178.625 97.3461 178.531C97.5724 178.438 97.8232 178.391 98.0986 178.391C98.2969 178.391 98.4731 178.424 98.6271 178.489C98.7811 178.555 98.9106 178.646 99.0156 178.762C99.1206 178.879 99.1999 179.02 99.2536 179.186C99.3072 179.352 99.3341 179.534 99.3341 179.732V182H99.0576C98.9969 182 98.9502 181.991 98.9176 181.972C98.8849 181.951 98.8592 181.911 98.8406 181.853L98.7706 181.517C98.6772 181.603 98.5862 181.68 98.4976 181.748C98.4089 181.813 98.3156 181.869 98.2176 181.916C98.1196 181.96 98.0146 181.994 97.9026 182.018C97.7929 182.043 97.6704 182.056 97.5351 182.056C97.3974 182.056 97.2679 182.037 97.1466 182C97.0252 181.96 96.9191 181.902 96.8281 181.825C96.7394 181.748 96.6682 181.651 96.6146 181.534C96.5632 181.415 96.5376 181.275 96.5376 181.114C96.5376 180.974 96.5761 180.84 96.6531 180.712C96.7301 180.581 96.8549 180.466 97.0276 180.365C97.2002 180.265 97.4254 180.183 97.7031 180.12C97.9807 180.055 98.3214 180.018 98.7251 180.008V179.732C98.7251 179.457 98.6656 179.249 98.5466 179.109C98.4276 178.967 98.2537 178.895 98.0251 178.895C97.8711 178.895 97.7416 178.915 97.6366 178.955C97.5339 178.992 97.4441 179.035 97.3671 179.084C97.2924 179.131 97.2271 179.174 97.1711 179.214C97.1174 179.251 97.0637 179.27 97.0101 179.27C96.9681 179.27 96.9319 179.259 96.9016 179.238C96.8712 179.215 96.8456 179.187 96.8246 179.154L96.7126 178.955ZM102.751 179.084C102.732 179.11 102.713 179.13 102.695 179.144C102.676 179.158 102.65 179.165 102.618 179.165C102.583 179.165 102.544 179.151 102.502 179.123C102.46 179.093 102.408 179.06 102.345 179.025C102.284 178.99 102.208 178.958 102.117 178.93C102.028 178.9 101.919 178.885 101.788 178.885C101.613 178.885 101.459 178.916 101.326 178.979C101.193 179.04 101.081 179.129 100.99 179.245C100.901 179.362 100.834 179.503 100.787 179.669C100.743 179.835 100.721 180.02 100.721 180.225C100.721 180.44 100.745 180.631 100.794 180.799C100.843 180.965 100.912 181.105 101.001 181.219C101.092 181.331 101.2 181.418 101.326 181.478C101.454 181.537 101.598 181.566 101.757 181.566C101.908 181.566 102.033 181.548 102.131 181.513C102.229 181.476 102.31 181.435 102.373 181.391C102.438 181.347 102.492 181.307 102.534 181.272C102.578 181.235 102.621 181.216 102.663 181.216C102.714 181.216 102.754 181.236 102.782 181.275L102.957 181.503C102.88 181.599 102.793 181.68 102.695 181.748C102.597 181.816 102.49 181.873 102.376 181.919C102.264 181.964 102.146 181.996 102.023 182.018C101.899 182.039 101.773 182.049 101.645 182.049C101.423 182.049 101.216 182.008 101.025 181.926C100.836 181.845 100.672 181.727 100.532 181.573C100.392 181.417 100.282 181.225 100.203 180.999C100.123 180.773 100.084 180.515 100.084 180.225C100.084 179.962 100.12 179.718 100.192 179.494C100.267 179.27 100.374 179.077 100.514 178.916C100.656 178.753 100.83 178.626 101.036 178.535C101.243 178.444 101.481 178.398 101.75 178.398C101.999 178.398 102.219 178.439 102.408 178.521C102.599 178.6 102.768 178.713 102.915 178.86L102.751 179.084ZM105.547 180.404C105.26 180.413 105.015 180.437 104.812 180.474C104.612 180.509 104.447 180.556 104.319 180.614C104.193 180.672 104.101 180.741 104.042 180.82C103.986 180.9 103.958 180.988 103.958 181.086C103.958 181.18 103.973 181.26 104.004 181.328C104.034 181.396 104.075 181.452 104.126 181.496C104.18 181.538 104.242 181.569 104.312 181.59C104.384 181.609 104.461 181.618 104.543 181.618C104.652 181.618 104.753 181.608 104.844 181.587C104.935 181.564 105.02 181.531 105.099 181.489C105.181 181.447 105.258 181.397 105.33 181.338C105.405 181.28 105.477 181.214 105.547 181.139V180.404ZM103.535 178.955C103.731 178.766 103.942 178.625 104.168 178.531C104.395 178.438 104.645 178.391 104.921 178.391C105.119 178.391 105.295 178.424 105.449 178.489C105.603 178.555 105.733 178.646 105.838 178.762C105.943 178.879 106.022 179.02 106.076 179.186C106.129 179.352 106.156 179.534 106.156 179.732V182H105.88C105.819 182 105.772 181.991 105.74 181.972C105.707 181.951 105.681 181.911 105.663 181.853L105.593 181.517C105.499 181.603 105.408 181.68 105.32 181.748C105.231 181.813 105.138 181.869 105.04 181.916C104.942 181.96 104.837 181.994 104.725 182.018C104.615 182.043 104.493 182.056 104.357 182.056C104.22 182.056 104.09 182.037 103.969 182C103.847 181.96 103.741 181.902 103.65 181.825C103.562 181.748 103.49 181.651 103.437 181.534C103.385 181.415 103.36 181.275 103.36 181.114C103.36 180.974 103.398 180.84 103.475 180.712C103.552 180.581 103.677 180.466 103.85 180.365C104.022 180.265 104.248 180.183 104.525 180.12C104.803 180.055 105.144 180.018 105.547 180.008V179.732C105.547 179.457 105.488 179.249 105.369 179.109C105.25 178.967 105.076 178.895 104.847 178.895C104.693 178.895 104.564 178.915 104.459 178.955C104.356 178.992 104.266 179.035 104.189 179.084C104.115 179.131 104.049 179.174 103.993 179.214C103.94 179.251 103.886 179.27 103.832 179.27C103.79 179.27 103.754 179.259 103.724 179.238C103.693 179.215 103.668 179.187 103.647 179.154L103.535 178.955ZM107.697 179.165C107.809 178.922 107.946 178.733 108.11 178.598C108.273 178.46 108.473 178.391 108.708 178.391C108.783 178.391 108.854 178.4 108.922 178.416C108.992 178.432 109.054 178.458 109.107 178.493L109.062 178.958C109.048 179.017 109.013 179.046 108.957 179.046C108.924 179.046 108.876 179.039 108.813 179.025C108.75 179.011 108.679 179.004 108.6 179.004C108.488 179.004 108.387 179.02 108.299 179.053C108.212 179.086 108.134 179.135 108.064 179.2C107.997 179.263 107.935 179.342 107.879 179.438C107.825 179.531 107.776 179.639 107.732 179.76V182H107.105V178.454H107.462C107.53 178.454 107.577 178.467 107.602 178.493C107.628 178.519 107.645 178.563 107.655 178.626L107.697 179.165Z" fill="#A0A0A0"/>
<path d="M111.004 179.429L112.146 178.429L114.43 178.571L114.573 180.857L113.574 182C113.574 182 113.574 181.143 112.717 180.286C111.861 179.428 111.004 179.429 111.004 179.429Z" fill="#A0041E"/>
<path d="M111 182C111 182 110.995 180.86 111.426 180.429C111.857 179.997 113.002 180.027 113.002 180.027C113.002 180.027 113.002 181.143 112.574 181.571C112.146 182 111 182 111 182Z" fill="#FFAC33"/>
<path d="M112.145 181.429C112.461 181.429 112.716 181.173 112.716 180.857C112.716 180.542 112.461 180.286 112.145 180.286C111.83 180.286 111.574 180.542 111.574 180.857C111.574 181.173 111.83 181.429 112.145 181.429Z" fill="#FFCC4D"/>
<path d="M116 177C116 177 114.572 177 112.859 178.429C112.003 179.143 112.003 180.429 112.288 180.714C112.574 181 113.859 181 114.572 180.143C116 178.429 116 177 116 177Z" fill="#55ACEE"/>
<path d="M114.715 177.714C114.483 177.714 114.285 177.853 114.195 178.051C114.267 178.019 114.346 178 114.43 178C114.745 178 115.001 178.256 115.001 178.571C115.001 178.655 114.982 178.734 114.949 178.806C115.148 178.716 115.286 178.518 115.286 178.286C115.286 177.97 115.03 177.714 114.715 177.714Z" fill="black"/>
<path d="M112.003 181C112.003 181 112.003 180.429 112.146 180.286C112.288 180.143 114.002 178.714 114.144 178.857C114.287 179 112.859 180.714 112.717 180.857C112.574 181 112.003 181 112.003 181Z" fill="#A0041E"/>
</svg>
